<?xml version="1.0" encoding="utf-8"?>
<svg fill="none" viewBox="0 0 16 16" xmlns="http://www.w3.org/2000/svg">
  <path fill="#FAFAFA" fill-rule="evenodd" d="M2 1.5h3.75a1.5 1.5 0 011.2.6L8 3.5h6A1.5 1.5 0 0115.5 5v2.37a5.75 5.75 0 00-8.906 7.13H2A1.5 1.5 0 01.5 13V3A1.5 1.5 0 012 1.5z" clip-rule="evenodd"/>
  <path fill="#555" fill-rule="evenodd" d="M2 1a2 2 0 00-2 2v10a2 2 0 002 2h4.938a5.751 5.751 0 01-.618-1H2a1 1 0 01-1-1V3a1 1 0 011-1h3.75a1 1 0 01.8.4L7.6 3.8l.15.2H14a1 1 0 011 1v1.938c.372.285.708.615 1 .982V5a2 2 0 00-2-2H8.25l-.9-1.2a2 2 0 00-1.6-.8H2z" clip-rule="evenodd"/>
  <path fill="#555" fill-rule="evenodd" d="M8.277 3.916l-1.122.748A2 2 0 016.045 5H.5V4h5.546a1 1 0 00.555-.168l1.122-.748.554.832z" clip-rule="evenodd"/>
  <path fill="#0078D4" d="M11.5 7a4.5 4.5 0 110 9 4.5 4.5 0 010-9z"/>
  <path fill="#fff" d="M 10.005 13.852 C 10.255 13.982 10.497 14.081 10.731 14.148 C 10.966 14.216 11.224 14.25 11.505 14.25 C 11.786 14.25 12.062 14.212 12.333 14.137 C 12.604 14.061 12.856 13.948 13.091 13.797 L 13.653 14.352 C 13.752 14.451 13.869 14.5 14.005 14.5 C 14.14 14.5 14.257 14.451 14.356 14.352 C 14.455 14.253 14.505 14.135 14.505 14 C 14.505 13.865 14.455 13.747 14.356 13.648 L 13.771 13.063 C 13.771 12.901 13.725 12.77 13.634 12.668 C 13.543 12.566 13.419 12.516 13.263 12.516 L 13.231 12.516 L 10.653 9.938 C 10.763 9.865 10.897 9.815 11.056 9.789 C 11.215 9.763 11.359 9.75 11.489 9.75 C 11.672 9.75 11.841 9.77 11.997 9.809 C 12.153 9.848 12.312 9.911 12.474 10 L 12.271 10 C 12.177 10 12.084 10.004 11.993 10.012 C 11.902 10.02 11.82 10.04 11.747 10.074 C 11.674 10.108 11.616 10.159 11.571 10.227 C 11.527 10.294 11.505 10.385 11.505 10.5 C 11.505 10.635 11.554 10.753 11.653 10.852 C 11.752 10.951 11.869 11 12.005 11 L 13.505 11 C 13.64 11 13.757 10.951 13.856 10.852 C 13.955 10.753 14.005 10.635 14.005 10.5 L 14.005 9 C 14.005 8.865 13.955 8.747 13.856 8.648 C 13.757 8.549 13.64 8.5 13.505 8.5 C 13.406 8.5 13.325 8.518 13.263 8.555 C 13.2 8.591 13.149000000000001 8.639 13.11 8.699 C 13.071 8.759 13.044 8.828 13.028 8.906 C 13.013 8.984 13.005 9.065 13.005 9.148 C 12.755 9.018 12.513 8.919 12.278 8.852 C 12.044 8.784 11.786 8.75 11.505 8.75 C 11.224 8.75 10.948 8.788 10.677 8.863 C 10.406 8.939 10.153 9.052 9.919 9.203 L 9.356 8.648 C 9.304 8.602 9.251 8.565 9.196 8.539 C 9.142 8.513 9.078 8.5 9.005 8.5 C 8.869 8.5 8.752 8.549 8.653 8.648 C 8.554 8.747 8.505 8.865 8.505 9 C 8.505 9.135 8.554 9.253 8.653 9.352 L 9.239 9.938 C 9.239 10.099 9.284 10.23 9.372 10.332 C 9.461 10.434 9.586 10.484 9.747 10.484 L 9.778 10.484 L 12.356 13.063 C 12.221 13.12 12.084 13.165 11.946 13.199 C 11.808 13.233 11.666 13.25 11.521 13.25 C 11.338 13.25 11.169 13.23 11.013 13.191 C 10.856 13.152 10.698 13.089 10.536 13 L 10.739 13 C 10.828 13 10.918 12.996 11.009 12.988 C 11.1 12.98 11.182 12.96 11.255 12.926 C 11.328 12.892 11.388 12.841 11.435 12.773 C 11.481 12.706 11.505 12.615 11.505 12.5 C 11.505 12.365 11.455 12.247 11.356 12.148 C 11.257 12.049 11.14 12 11.005 12 L 9.505 12 C 9.369 12 9.252 12.049 9.153 12.148 C 9.054 12.247 9.005 12.365 9.005 12.5 L 9.005 14 C 9.005 14.135 9.054 14.253 9.153 14.352 C 9.252 14.451 9.369 14.5 9.505 14.5 C 9.604 14.5 9.685 14.482 9.747 14.445 C 9.81 14.409 9.86 14.361 9.899000000000001 14.301 C 9.938 14.241 9.966 14.172 9.981 14.094 C 9.997 14.016 10.005 13.935 10.005 13.852 Z"/>
</svg>