<svg version="1.1" viewBox="0 0 16 16" xmlns="http://www.w3.org/2000/svg">
  <path fill="#0078D4" d="M 2.005 5 C 1.864 5 1.733 4.974 1.61 4.922 C 1.488 4.87 1.382 4.799 1.294 4.711 C 1.205 4.622 1.135 4.517 1.083 4.395 C 1.031 4.272 1.005 4.141 1.005 4 L 1.005 2 C 1.005 1.859 1.031 1.729 1.083 1.609 C 1.135 1.49 1.207 1.384 1.298 1.293 C 1.389 1.202 1.494 1.13 1.614 1.078 C 1.734 1.026 1.864 1 2.005 1 L 4.005 1 C 4.14 1 4.269 1.026 4.392 1.078 C 4.514 1.13 4.621 1.202 4.712 1.293 C 4.803 1.384 4.875 1.491 4.927 1.613 C 4.979 1.736 5.005 1.865 5.005 2 L 5.005 4 C 5.005 4.141 4.979 4.271 4.927 4.391 C 4.875 4.51 4.803 4.616 4.712 4.707 C 4.621 4.798 4.515 4.87 4.396 4.922 C 4.276 4.974 4.146 5 4.005 5 L 2.005 5 Z"/>
  <path fill="#555" d="M 6.505 13 C 6.369 13 6.252 12.951 6.153 12.852 C 6.054 12.753 6.005 12.635 6.005 12.5 C 6.005 12.365 6.054 12.247 6.153 12.148 C 6.252 12.049 6.369 12 6.505 12 L 14.505 12 C 14.64 12 14.757 12.049 14.856 12.148 C 14.955 12.247 15.005 12.365 15.005 12.5 C 15.005 12.635 14.955 12.753 14.856 12.852 C 14.757 12.951 14.64 13 14.505 13 L 6.505 13 Z"/>
  <path fill="#0078D4" d="M 2.005 15 C 1.864 15 1.733 14.974 1.61 14.922 C 1.488 14.87 1.382 14.799 1.294 14.711 C 1.205 14.622 1.135 14.517 1.083 14.395 C 1.031 14.272 1.005 14.141 1.005 14 L 1.005 12 C 1.005 11.859 1.031 11.729 1.083 11.609 C 1.135 11.49 1.207 11.384 1.298 11.293 C 1.389 11.202 1.494 11.13 1.614 11.078 C 1.734 11.026 1.864 11 2.005 11 L 4.005 11 C 4.14 11 4.269 11.026 4.392 11.078 C 4.514 11.13 4.621 11.202 4.712 11.293 C 4.803 11.384 4.875 11.491 4.927 11.613 C 4.979 11.736 5.005 11.865 5.005 12 L 5.005 14 C 5.005 14.141 4.979 14.271 4.927 14.391 C 4.875 14.51 4.803 14.616 4.712 14.707 C 4.621 14.798 4.515 14.87 4.396 14.922 C 4.276 14.974 4.146 15 4.005 15 L 2.005 15 Z"/>
  <path fill="#555" d="M 6.505 8 C 6.369 8 6.252 7.951 6.153 7.852 C 6.054 7.753 6.005 7.635 6.005 7.5 C 6.005 7.365 6.054 7.247 6.153 7.148 C 6.252 7.049 6.369 7 6.505 7 L 14.505 7 C 14.64 7 14.757 7.049 14.856 7.148 C 14.955 7.247 15.005 7.365 15.005 7.5 C 15.005 7.635 14.955 7.753 14.856 7.852 C 14.757 7.951 14.64 8 14.505 8 L 6.505 8 Z"/>
  <path fill="#0078D4" d="M 2.005 10 C 1.864 10 1.733 9.974 1.61 9.922 C 1.488 9.87 1.382 9.799 1.294 9.711 C 1.205 9.622 1.135 9.517 1.083 9.395 C 1.031 9.272 1.005 9.141 1.005 9 L 1.005 7 C 1.005 6.859 1.031 6.729 1.083 6.609 C 1.135 6.49 1.207 6.384 1.298 6.293 C 1.389 6.202 1.494 6.13 1.614 6.078 C 1.734 6.026 1.864 6 2.005 6 L 4.005 6 C 4.14 6 4.269 6.026 4.392 6.078 C 4.514 6.13 4.621 6.202 4.712 6.293 C 4.803 6.384 4.875 6.491 4.927 6.613 C 4.979 6.736 5.005 6.865 5.005 7 L 5.005 9 C 5.005 9.141 4.979 9.271 4.927 9.391 C 4.875 9.51 4.803 9.616 4.712 9.707 C 4.621 9.798 4.515 9.87 4.396 9.922 C 4.276 9.974 4.146 10 4.005 10 L 2.005 10 Z"/>
  <path fill="#555" d="M 6.505 3 C 6.369 3 6.252 2.951 6.153 2.852 C 6.054 2.753 6.005 2.635 6.005 2.5 C 6.005 2.365 6.054 2.247 6.153 2.148 C 6.252 2.049 6.369 2 6.505 2 L 14.505 2 C 14.64 2 14.757 2.049 14.856 2.148 C 14.955 2.247 15.005 2.365 15.005 2.5 C 15.005 2.635 14.955 2.753 14.856 2.852 C 14.757 2.951 14.64 3 14.505 3 L 6.505 3 Z"/>
  <path fill="#fff" d="M 2.005 7 L 2.005 9 L 4.005 9 L 4.005 7 L 2.005 7 Z"/>
  <path fill="#fff" d="M 2.005 12 L 2.005 14 L 4.005 14 L 4.005 12 L 2.005 12 Z"/>
  <path fill="#fff" d="M 2.005 2 L 2.005 4 L 4.005 4 L 4.005 2 L 2.005 2 Z"/>
</svg>