<?xml version="1.0" encoding="utf-8"?>
<svg fill="none" viewBox="0 0 16 16" xmlns="http://www.w3.org/2000/svg">
  <path fill="#FAFAFA" d="M 15.007 2.993 C 15.327 3.614 15.495 4.302 15.5 5 C 15.5 5.802 15.29 6.555 14.922 7.207 C 14.709 7.03 14.485 6.872 14.25 6.737 C 12.51 5.732 10.255 5.868 8.75 6.737 C 7.245 7.606 6 9.491 6 11.5 C 6 11.939 6.064 12.385 6.183 12.823 L 4.128 14.878 C 3.591 15.415 2.808 15.625 2.075 15.428 C 0.494 15.005 -0.035 13.029 1.122 11.872 L 6.709 6.286 C 6.577 5.87 6.506 5.436 6.5 5 C 6.5 2.515 8.515 0.5 11 0.5 C 11.698 0.505 12.386 0.673 13.007 0.993 L 10 4 L 12 6 Z" clip-path="url(#clip0)"/>
  <path fill="#555" fill-rule="evenodd" d="M 7.464 1.464 C 8.402 0.526 9.674 0 11 0 L 11.003 0 C 11.78 0.005 12.545 0.193 13.236 0.548 C 13.537 0.703 13.6 1.106 13.361 1.346 L 10.707 4 L 12 5.293 L 14.654 2.639 C 14.894 2.4 15.297 2.463 15.452 2.764 C 15.807 3.455 15.995 4.22 16 4.997 L 16 5 C 16 5.932 15.745 6.805 15.3 7.552 C 15.058 7.309 14.797 7.091 14.519 6.905 C 14.825 6.339 15 5.691 15 5.002 C 14.998 4.621 14.94 4.242 14.829 3.878 L 12.578 6.129 C 12.163 6.053 11.743 6.023 11.328 6.036 L 9.646 4.354 C 9.45 4.159 9.45 3.841 9.646 3.646 L 12.122 1.171 C 11.758 1.06 11.379 1.002 10.998 1 C 8.791 1.001 7.002 2.789 7 4.996 C 7.006 5.383 7.068 5.766 7.185 6.134 C 7.242 6.312 7.194 6.507 7.062 6.639 L 1.476 12.226 C 1.01 12.691 0.87 13.391 1.121 13.999 C 1.565 15.069 2.954 15.345 3.773 14.525 L 6.058 12.24 C 6.117 12.617 6.218 12.992 6.356 13.356 L 4.482 15.231 C 3.159 16.556 0.914 16.11 0.197 14.381 C -0.209 13.399 0.017 12.269 0.769 11.519 L 6.148 6.139 C 6.055 5.769 6.006 5.389 6 5.008 L 6 5 C 6 3.674 6.526 2.402 7.464 1.464 Z" clip-rule="evenodd" clip-path="url(#clip0)"/>
  <path fill="#0078D4" d="M16 11.5a4.5 4.5 0 11-9 0 4.5 4.5 0 019 0z"/>
  <path fill="#fff" fill-rule="evenodd" d="M 11 11 L 12 11 L 13.5 11 C 13.885 11 14.125 11.417 13.933 11.75 C 13.844 11.905 13.679 12 13.5 12 L 12 12 L 11 12 L 9.5 12 C 9.115 12 8.875 11.583 9.067 11.25 C 9.156 11.095 9.321 11 9.5 11 L 11 11 Z" clip-rule="evenodd"/>
</svg>