<?xml version="1.0" encoding="utf-8"?>
<svg version="1.1" viewBox="-10 0 2068 2048" xmlns="http://www.w3.org/2000/svg">
  <path d="M315 1856q-50 0 -95.5 -20.5t-80 -55t-55 -80t-20.5 -95.5v-1034q0 -50 20.5 -95.5t55 -80t80 -55t95.5 -20.5h1418q50 0 95.5 20.5t80 55t55 80t20.5 95.5v1034q0 50 -20.5 95.5t-55 80t-80 55t-95.5 20.5h-1418z" fill="#fff"/>
  <path fill="#555" d="M1735 256q63 0 120 25.5t99.5 68t68 99.5t25.5 120v1038q0 63 -25.5 120t-68 99.5t-99.5 68t-120 25.5h-1422q-63 0 -120 -25.5t-99.5 -68t-68 -99.5t-25.5 -120v-1038q0 -63 25.5 -120t68 -99.5t99.5 -68t120 -25.5h1422zM320 384q-39 0 -74 15t-61.5 41.5t-41.5 61.5 t-15 74v28l896 537l896 -537v-28q0 -39 -15 -74t-41.5 -61.5t-61.5 -41.5t-74 -15h-1408zM1728 1792q39 0 74 -15t61.5 -41.5t41.5 -61.5t15 -74v-847l-863 518q-15 9 -33 9t-33 -9l-863 -518v847q0 39 15 74t41.5 61.5t61.5 41.5t74 15h1408z"/>
</svg>