<?xml version="1.0" encoding="utf-8"?>
<svg fill="none" viewBox="0 0 16 16" xmlns="http://www.w3.org/2000/svg">
  <path fill="#FAFAFA" d="M 5 10 C 5 11.657 6.343 13 8 13 L 9.437 13 C 9.209 13.883 8.412 14.5 7.5 14.5 L 3.5 14.5 C 2.395 14.5 1.5 13.605 1.5 12.5 L 1.5 9.112 C 1.775 9.29 2.065 9.447 2.353 9.575 C 2.999 9.841 3.782 10.008 4.505 10.008 C 4.667 10.008 4.833 10 5 9.984 Z"/>
  <path fill="#555" d="M 2 12.5 C 2 13.328 2.672 14 3.5 14 L 7.5 14 C 8.136 14 8.703 13.6 8.915 13 L 9.95 13 C 9.712 14.164 8.688 15 7.5 15 L 3.5 15 C 2.119 15 1 13.881 1 12.5 L 1 8.751 C 1.306 8.998 1.649 9.221 2 9.404 Z"/>
  <path fill="#FAFAFA" d="M 12.5 1.5 C 13.605 1.5 14.5 2.395 14.5 3.5 L 14.5 9.5 C 14.5 10.605 13.605 11.5 12.5 11.5 L 8.5 11.5 C 7.439 11.5 6.572 10.675 6.504 9.631 C 6.555 9.612 6.604 9.591 6.653 9.57 C 7.284 9.296 7.918 8.869 8.392 8.394 C 8.866 7.921 9.293 7.287 9.567 6.656 C 9.845 6.014 10.005 5.228 10.005 4.508 C 10.005 4.03 9.929 3.498 9.808 3.047 C 9.68 2.605 9.479 2.13 9.256 1.738 C 9.209 1.659 9.158 1.58 9.105 1.5 Z"/>
  <path fill="#555" d="M 7 9.5 C 7 10.328 7.672 11 8.5 11 L 12.5 11 C 13.328 11 14 10.328 14 9.5 L 14 3.5 C 14 2.672 13.328 2 12.5 2 L 9.396 2 C 9.35 1.91 9.304 1.822 9.256 1.738 C 9.109 1.493 8.929 1.237 8.735 1 L 12.5 1 C 13.881 1 15 2.119 15 3.5 L 15 9.5 C 15 10.881 13.881 12 12.5 12 L 8.5 12 C 7.219 12 6.163 11.037 6.017 9.794 C 6.239 9.732 6.453 9.657 6.653 9.57 C 6.769 9.52 6.885 9.464 7 9.404 Z"/>
  <path fill="#0078D4" d="M 0.005 4.508 C 0.005 3.888 0.123 3.305 0.36 2.758 C 0.597 2.211 0.919 1.734 1.325 1.328 C 1.731 0.922 2.208 0.6 2.755 0.363 C 3.302 0.126 3.885 0.008 4.505 0.008 C 4.916 0.008 5.313 0.061 5.696 0.168 C 6.079 0.275 6.437 0.426 6.771 0.621 C 7.104 0.816 7.409 1.052 7.685 1.328 C 7.961 1.604 8.196 1.909 8.392 2.242 C 8.587 2.576 8.738 2.934 8.845 3.316 C 8.952 3.699 9.005 4.096 9.005 4.508 C 9.005 5.128 8.886 5.711 8.649 6.258 C 8.412 6.805 8.091 7.281 7.685 7.687 C 7.278 8.094 6.802 8.415 6.255 8.652 C 5.708 8.889 5.125 9.008 4.505 9.008 C 3.88 9.008 3.294 8.891 2.747 8.656 C 2.2 8.422 1.724 8.102 1.317 7.695 C 0.911 7.289 0.591 6.812 0.356 6.266 C 0.122 5.719 0.005 5.133 0.005 4.508 Z"/>
  <path fill="#fff" d="M 4.505 7.062 C 4.661 7.062 4.794 7.008 4.903 6.898 L 6.903 4.898 C 7.013 4.789 7.067 4.656 7.067 4.5 C 7.067 4.344 7.013 4.211 6.903 4.102 L 4.903 2.102 C 4.794 1.992 4.661 1.937 4.505 1.937 C 4.349 1.937 4.216 1.992 4.106 2.102 C 3.997 2.211 3.942 2.344 3.942 2.5 C 3.942 2.656 3.997 2.789 4.106 2.898 L 5.208 4 L 2.505 4 C 2.369 4 2.252 4.049 2.153 4.148 C 2.054 4.247 2.005 4.365 2.005 4.5 C 2.005 4.635 2.054 4.753 2.153 4.852 C 2.252 4.951 2.369 5 2.505 5 L 5.208 5 L 4.106 6.102 C 3.997 6.211 3.942 6.344 3.942 6.5 C 3.942 6.656 3.997 6.789 4.106 6.898 C 4.216 7.008 4.349 7.062 4.505 7.062 Z"/>
</svg>