<svg xmlns="http://www.w3.org/2000/svg" fill="none" viewBox="0 0 16 16">
  <path fill="#FAFAFA" fill-rule="evenodd" d="M2 1.5h3.75a1.5 1.5 0 011.2.6L8 3.5h6A1.5 1.5 0 0115.5 5v2.37a5.75 5.75 0 00-8.906 7.13H2A1.5 1.5 0 01.5 13V3A1.5 1.5 0 012 1.5z" clip-rule="evenodd"/>
  <path fill="#555" fill-rule="evenodd" d="M2 1a2 2 0 00-2 2v10a2 2 0 002 2h4.938a5.751 5.751 0 01-.618-1H2a1 1 0 01-1-1V3a1 1 0 011-1h3.75a1 1 0 01.8.4L7.6 3.8l.15.2H14a1 1 0 011 1v1.938c.372.285.708.615 1 .982V5a2 2 0 00-2-2H8.25l-.9-1.2a2 2 0 00-1.6-.8H2z" clip-rule="evenodd"/>
  <path fill="#555" fill-rule="evenodd" d="M8.277 3.916l-1.122.748A2 2 0 016.045 5H.5V4h5.546a1 1 0 00.555-.168l1.122-.748.554.832z" clip-rule="evenodd"/>
  <path fill="#0078D4" d="M11.5 7a4.5 4.5 0 110 9 4.5 4.5 0 010-9z"/>
  <path fill="#fff" d="M11.146 13.854a.5.5 0 010-.708l1.647-1.646-1.647-1.646a.5.5 0 01.708-.708l2 2a.5.5 0 010 .708l-2 2a.5.5 0 01-.708 0z"/>
  <path fill="#fff" d="M9 11.5a.5.5 0 01.5-.5h4a.5.5 0 010 1h-4a.5.5 0 01-.5-.5z"/>
</svg>
