<?xml version="1.0" encoding="utf-8"?>
<svg version="1.1" viewBox="0 0 16 16" xmlns="http://www.w3.org/2000/svg">
  <path fill="#555" d="M 0.5 8 C 0.5 7.307 0.589 6.642 0.766 6.004 C 0.943 5.366 1.194 4.768 1.52 4.211 C 1.845 3.654 2.236 3.147 2.691 2.691 C 3.147 2.236 3.654 1.845 4.211 1.52 C 4.768 1.194 5.366 0.943 6.004 0.766 C 6.642 0.589 7.307 0.5 8 0.5 C 8.688 0.5 9.35 0.59 9.988 0.77 C 10.626 0.949 11.224 1.202 11.781 1.527 C 12.339 1.853 12.845 2.243 13.301 2.699 C 13.757 3.155 14.147 3.661 14.473 4.219 C 14.798 4.776 15.051 5.374 15.23 6.012 C 15.41 6.65 15.5 7.313 15.5 8 C 15.5 8.693 15.41 9.358 15.23 9.996 C 15.051 10.634 14.798 11.23 14.473 11.785 C 14.147 12.34 13.757 12.845 13.301 13.301 C 12.845 13.757 12.34 14.147 11.785 14.473 C 11.23 14.798 10.633 15.051 9.992 15.23 C 9.352 15.41 8.688 15.5 8 15.5 C 7.307 15.5 6.641 15.411 6 15.234 C 5.359 15.057 4.762 14.806 4.207 14.48 C 3.652 14.155 3.147 13.764 2.691 13.309 C 2.236 12.853 1.845 12.348 1.52 11.793 C 1.194 11.238 0.943 10.641 0.766 10 C 0.589 9.359 0.5 8.693 0.5 8 Z"/>
  <path fill="#fff" d="M 14.5 8 C 14.5 7.401 14.423 6.824 14.27 6.27 C 14.116 5.715 13.897 5.197 13.613 4.715 C 13.329 4.233 12.991 3.796 12.598 3.402 C 12.204 3.009 11.767 2.671 11.285 2.387 C 10.803 2.103 10.285 1.884 9.73 1.73 C 9.176 1.577 8.599 1.5 8 1.5 C 7.401 1.5 6.824 1.577 6.27 1.73 C 5.715 1.884 5.197 2.102 4.715 2.383 C 4.233 2.664 3.794 3.003 3.398 3.398 C 3.003 3.794 2.664 4.233 2.383 4.715 C 2.102 5.197 1.884 5.715 1.73 6.27 C 1.577 6.824 1.5 7.401 1.5 8 C 1.5 8.599 1.577 9.176 1.73 9.73 C 1.884 10.285 2.102 10.803 2.383 11.285 C 2.664 11.767 3.003 12.206 3.398 12.602 C 3.794 12.997 4.233 13.336 4.715 13.617 C 5.197 13.898 5.715 14.116 6.27 14.27 C 6.824 14.423 7.401 14.5 8 14.5 C 8.599 14.5 9.176 14.423 9.73 14.27 C 10.285 14.116 10.803 13.897 11.285 13.613 C 11.767 13.329 12.204 12.991 12.598 12.598 C 12.991 12.204 13.329 11.767 13.613 11.285 C 13.897 10.803 14.116 10.285 14.27 9.73 C 14.423 9.176 14.5 8.599 14.5 8 Z"/>
  <path fill="#0078D4" d="M 7.25 12 C 7.25 11.792 7.323 11.615 7.469 11.469 C 7.615 11.323 7.792 11.25 8 11.25 C 8.208 11.25 8.385 11.323 8.531 11.469 C 8.677 11.615 8.75 11.792 8.75 12 C 8.75 12.208 8.677 12.385 8.531 12.531 C 8.385 12.677 8.208 12.75 8 12.75 C 7.792 12.75 7.615 12.677 7.469 12.531 C 7.323 12.385 7.25 12.208 7.25 12 Z"/>
  <path fill="#0078D4" d="M 9.5 6 C 9.5 5.797 9.461 5.604 9.383 5.422 C 9.305 5.24 9.197 5.079 9.059 4.941 C 8.921 4.803 8.76 4.695 8.578 4.617 C 8.396 4.539 8.203 4.5 8 4.5 C 7.797 4.5 7.604 4.539 7.422 4.617 C 7.24 4.695 7.079 4.803 6.941 4.941 C 6.803 5.079 6.695 5.24 6.617 5.422 C 6.539 5.604 6.5 5.797 6.5 6 C 6.5 6.135 6.451 6.253 6.352 6.352 C 6.253 6.451 6.135 6.5 6 6.5 C 5.839 6.5 5.715 6.445 5.629 6.336 C 5.543 6.227 5.5 6.096 5.5 5.945 C 5.5 5.607 5.568 5.289 5.703 4.992 C 5.839 4.695 6.021 4.436 6.25 4.215 C 6.479 3.993 6.745 3.819 7.047 3.691 C 7.349 3.564 7.667 3.5 8 3.5 C 8.333 3.5 8.651 3.564 8.953 3.691 C 9.255 3.819 9.521 3.993 9.75 4.215 C 9.979 4.436 10.161 4.695 10.297 4.992 C 10.432 5.289 10.5 5.607 10.5 5.945 C 10.5 6.258 10.448 6.555 10.344 6.836 C 10.24 7.117 10.078 7.37 9.859 7.594 C 9.693 7.76 9.526 7.928 9.359 8.098 C 9.193 8.267 9.026 8.435 8.859 8.602 C 8.776 8.685 8.711 8.77 8.664 8.855 C 8.617 8.941 8.582 9.029 8.559 9.117 C 8.535 9.206 8.52 9.296 8.512 9.387 C 8.504 9.478 8.5 9.573 8.5 9.672 L 8.5 10 C 8.5 10.135 8.451 10.253 8.352 10.352 C 8.253 10.451 8.135 10.5 8 10.5 C 7.891 10.5 7.802 10.479 7.734 10.438 C 7.667 10.396 7.616 10.34 7.582 10.27 C 7.548 10.199 7.526 10.12 7.516 10.031 C 7.505 9.943 7.5 9.854 7.5 9.766 L 7.5 9.5 C 7.5 9.188 7.549 8.914 7.648 8.68 C 7.747 8.445 7.871 8.236 8.02 8.051 C 8.168 7.866 8.328 7.697 8.5 7.543 C 8.672 7.389 8.832 7.236 8.98 7.082 C 9.129 6.928 9.253 6.766 9.352 6.594 C 9.451 6.422 9.5 6.224 9.5 6 Z"/>
</svg>