<?xml version="1.0" encoding="UTF-8" standalone="no"?>
<svg
   version="1.1"
   id="clover"
   viewBox="0 0 256 256"
   xml:space="preserve"
   sodipodi:docname="Rosé Pine Dark.svg"
   inkscape:version="1.2.1 (9c6d41e410, 2022-07-14)"
   xmlns:inkscape="http://www.inkscape.org/namespaces/inkscape"
   xmlns:sodipodi="http://sodipodi.sourceforge.net/DTD/sodipodi-0.dtd"
   xmlns="http://www.w3.org/2000/svg"
   xmlns:svg="http://www.w3.org/2000/svg"><sodipodi:namedview
   id="namedview15"
   pagecolor="#ffffff"
   bordercolor="#000000"
   borderopacity="0.25"
   inkscape:showpageshadow="2"
   inkscape:pageopacity="0.0"
   inkscape:pagecheckerboard="0"
   inkscape:deskcolor="#d1d1d1"
   showgrid="false"
   inkscape:zoom="4"
   inkscape:cx="69.625"
   inkscape:cy="156.5"
   inkscape:window-width="2560"
   inkscape:window-height="1310"
   inkscape:window-x="-11"
   inkscape:window-y="28"
   inkscape:window-maximized="1"
   inkscape:current-layer="clover" /><defs
   id="defs284"><linearGradient
     id="_lgradient_3"
     x1="0"
     y1="0.5"
     x2="1"
     y2="0.5"
     gradientTransform="matrix(241.99999,0,0,241.99999,6.8753682,7.000003)"
     gradientUnits="userSpaceOnUse"><stop
       offset="0%"
       stop-opacity="1"
       style="stop-color:rgb(238,205,163)"
       id="stop2" /><stop
       offset="98.26086956521739%"
       stop-opacity="1"
       style="stop-color:rgb(239,98,159)"
       id="stop4" /></linearGradient></defs>
<linearGradient
   id="CLOVER"
   gradientUnits="userSpaceOnUse"
   x1="23.6635"
   y1="23.6635"
   x2="232.3365"
   y2="232.3365">
	<stop
   offset="0"
   style="stop-color:#10D683"
   id="stop266" />
	<stop
   offset="0.0932"
   style="stop-color:#0EC87E"
   id="stop268" />
	<stop
   offset="0.3246"
   style="stop-color:#0BAB73"
   id="stop270" />
	<stop
   offset="0.5548"
   style="stop-color:#09976B"
   id="stop272" />
	<stop
   offset="0.7814"
   style="stop-color:#078A67"
   id="stop274" />
	<stop
   offset="1"
   style="stop-color:#078665"
   id="stop276" />
</linearGradient>

<g
   id="g1013"
   style="fill:#575279;fill-opacity:1"><path
     d="M 63.227272,63.227275 H 110.95455 V 110.95455 H 63.227272 Z m 81.818178,0 h 47.72728 V 110.95455 H 145.04545 Z M 63.227272,145.04546 h 47.727278 v 47.72727 H 63.227272 Z m 0,-92.045459 h 47.727278 c 5.64545,0 10.22726,4.581818 10.22726,10.227273 v 47.727276 c 0,5.64545 -4.58181,10.22727 -10.22726,10.22727 H 63.227272 c -5.645455,0 -10.227273,-4.58182 -10.227273,-10.22727 V 63.227275 c 0,-5.645455 4.581818,-10.227273 10.227273,-10.227274 z m 81.818178,0 h 47.72728 c 5.64545,0 10.22727,4.581818 10.22727,10.227273 v 47.727276 c 0,5.64545 -4.58182,10.22727 -10.22727,10.22727 h -47.72728 c -5.64545,0 -10.22727,-4.58182 -10.22727,-10.22727 V 63.227275 c 0,-5.645455 4.58182,-10.227273 10.22727,-10.227274 z M 63.227272,134.81818 h 47.727278 c 5.64545,0 10.22726,4.58182 10.22726,10.22728 v 47.72727 C 121.18181,198.41818 116.6,203 110.95455,203 H 63.227272 c -5.645455,0 -10.227273,-4.58182 -10.227273,-10.22727 v -47.72727 c 0,-5.64546 4.581818,-10.22728 10.227273,-10.22728 z m 81.818178,10.22728 h 47.72728 v 47.72727 h -47.72728 z m 0,-10.22728 h 47.72728 C 198.41818,134.81818 203,139.4 203,145.04546 v 47.72727 C 203,198.41818 198.41818,203 192.77273,203 h -47.72728 c -5.64545,0 -10.22727,-4.58182 -10.22727,-10.22727 v -47.72727 c 0,-5.64546 4.58182,-10.22728 10.22727,-10.22728 z"
     fill-rule="evenodd"
     fill="url(#_lgradient_3)"
     id="path7"
     style="isolation:isolate;fill:#575279;fill-opacity:1;stroke-width:3.40909" /><rect
     style="fill:#575279;fill-opacity:1"
     id="rect1000"
     width="53.386562"
     height="54.09367"
     x="59.396969"
     y="60.811184" /><rect
     style="fill:#575279;fill-opacity:1"
     id="rect1002"
     width="51.625"
     height="51"
     x="142.75"
     y="61.875" /><rect
     style="fill:#575279;fill-opacity:1"
     id="rect1004"
     width="52"
     height="52.875"
     x="143.875"
     y="144.125" /><rect
     style="fill:#575279;fill-opacity:1"
     id="rect1006"
     width="53.25"
     height="51.625"
     x="59.75"
     y="143.25" /></g></svg>
