<?xml version="1.0" encoding="UTF-8"?>
<svg version="1.1" xmlns="http://www.w3.org/2000/svg" width="512" height="512">
<path d="M0 0 C0.72310364 -0.00067474 1.44620728 -0.00134949 2.19122314 -0.00204468 C45.0175449 0.06102015 84.75413371 12.51278614 116.25 42.25 C116.96027344 42.90742187 117.67054688 43.56484375 118.40234375 44.2421875 C138.4853058 63.43856965 148.35812254 94.3866713 149.3762207 121.62719727 C149.45709926 125.5851115 149.49607734 129.54139654 149.5 133.5 C149.50100708 134.20631561 149.50201416 134.91263123 149.50305176 135.64035034 C149.48289504 156.6225995 146.36403721 176.04505923 138.67260742 195.63574219 C136.31884145 201.75743487 134.53109684 208.00397937 132.75 214.3125 C127.2196958 233.699532 121.04863501 252.27124581 102.8828125 263.29296875 C97.48019665 266.24485976 92.39227335 268.45610072 86.25 269.25 C81.69668974 269.93805577 78.86359477 270.94366022 76.0703125 274.7265625 C74.33118687 280.07644419 75.85748291 285.90706389 76.88452148 291.31762695 C79.46195119 304.94511933 80.12604311 318.00116084 72.5078125 329.9921875 C65.0929271 340.54091125 55.5982487 349.91051406 45.6875 358.125 C35.23734775 367.13993821 30.39529911 382.10190535 24.953125 394.4375 C15.73359427 415.32757361 7.40566737 432.48254523 -14.97265625 441.42578125 C-22.74204704 443.73146544 -30.24239851 444.55886892 -38.32421875 444.55078125 C-39.776325 444.55720894 -39.776325 444.55720894 -41.25776672 444.56376648 C-43.28715233 444.56946749 -45.31655835 444.57004158 -47.34594727 444.56567383 C-50.43996906 444.56249747 -53.53304796 444.58608276 -56.62695312 444.61132812 C-58.60937381 444.61360002 -60.59179703 444.61430513 -62.57421875 444.61328125 C-63.49103928 444.622491 -64.4078598 444.63170074 -65.35246277 444.64118958 C-70.91924331 444.60124811 -74.8314032 443.91771352 -79.75 441.25 C-84.48901973 436.21874072 -84.62792449 430.63812328 -85.25 424.0625 C-86.49042895 408.97955407 -86.49042895 408.97955407 -95.27124023 397.4050293 C-96.42483457 396.50916498 -97.58060715 395.61609863 -98.73852539 394.72583008 C-106.06076743 388.83055021 -110.49324448 380.3915034 -112.37109375 371.21484375 C-112.64182097 365.77568777 -111.28140498 362.48768597 -107.75 358.25 C-105.8263636 355.75639726 -104.75798857 354.27396571 -103.75 351.25 C-105.15185547 351.52263672 -105.15185547 351.52263672 -106.58203125 351.80078125 C-114.26683166 353.27904695 -121.96524564 354.66875072 -129.6875 355.9375 C-130.45489502 356.06874268 -131.22229004 356.19998535 -132.01293945 356.33520508 C-142.933011 358.09065809 -142.933011 358.09065809 -147.75 357.25 C-151.41112395 354.45197288 -152.08077312 350.62366413 -152.75 346.25 C-152.78815621 343.57088917 -152.74859597 340.9806279 -152.625 338.3125 C-152.43517406 330.79301978 -153.38037648 323.82051743 -154.75 316.4375 C-156.77861784 305.3846431 -157.06349878 294.74765868 -156.77734375 283.55541992 C-156.73673828 281.79935425 -156.73673828 281.79935425 -156.6953125 280.0078125 C-156.65937988 278.9677002 -156.62344727 277.92758789 -156.58642578 276.85595703 C-156.54625063 274.01234756 -156.54625063 274.01234756 -158.75 271.25 C-161.64375871 271.03733445 -161.64375871 271.03733445 -164.9375 271.3125 C-171.0239329 271.41326876 -174.15940733 271.35223175 -178.75 267.25 C-183.56044672 258.87242203 -183.94532708 249.67771793 -183.9375 240.25 C-183.93814453 239.42983398 -183.93878906 238.60966797 -183.93945312 237.76464844 C-183.88200282 230.99856984 -183.19444169 224.450599 -182.1875 217.765625 C-181.41848497 211.58603991 -181.51710471 206.92334629 -183.875 201.125 C-184.32488281 200.00222656 -184.77476562 198.87945312 -185.23828125 197.72265625 C-186.73945612 194.27422095 -188.38876156 190.92985501 -190.0625 187.5625 C-192.6712851 181.91126162 -194.180944 177.41916916 -192.75 171.25 C-190.60815619 165.68686112 -188.11514606 160.80308599 -184.16796875 156.3125 C-181.49500119 152.92702897 -180.6845596 150.68754592 -179.75 146.5 C-179.51591431 145.45694702 -179.51591431 145.45694702 -179.27709961 144.39282227 C-178.14336799 139.00884322 -177.33703228 133.58254256 -176.56640625 128.13671875 C-176.46266693 127.4078244 -176.35892761 126.67893005 -176.25204468 125.927948 C-175.7322344 122.24988054 -175.23201367 118.57071952 -174.76367188 114.88574219 C-173.07299962 102.08898481 -170.03066435 89.51323133 -164 78 C-163.66347412 77.34435059 -163.32694824 76.68870117 -162.98022461 76.01318359 C-145.35372902 42.7371471 -111.92090924 22.59043776 -77.09912109 11.39794922 C-52.22422986 3.90059992 -25.94526301 0.02192013 0 0 Z " fill="#FBFBFB" transform="translate(277.75,33.75)"/>
<path d="M0 0 C0.72310364 -0.00067474 1.44620728 -0.00134949 2.19122314 -0.00204468 C45.0175449 0.06102015 84.75413371 12.51278614 116.25 42.25 C116.96027344 42.90742187 117.67054688 43.56484375 118.40234375 44.2421875 C138.4853058 63.43856965 148.35812254 94.3866713 149.3762207 121.62719727 C149.45709926 125.5851115 149.49607734 129.54139654 149.5 133.5 C149.50100708 134.20631561 149.50201416 134.91263123 149.50305176 135.64035034 C149.48289504 156.6225995 146.36403721 176.04505923 138.67260742 195.63574219 C136.31884145 201.75743487 134.53109684 208.00397937 132.75 214.3125 C127.2196958 233.699532 121.04863501 252.27124581 102.8828125 263.29296875 C97.48019665 266.24485976 92.39227335 268.45610072 86.25 269.25 C81.69668974 269.93805577 78.86359477 270.94366022 76.0703125 274.7265625 C74.33118687 280.07644419 75.85748291 285.90706389 76.88452148 291.31762695 C79.46195119 304.94511933 80.12604311 318.00116084 72.5078125 329.9921875 C65.0929271 340.54091125 55.5982487 349.91051406 45.6875 358.125 C35.23734775 367.13993821 30.39529911 382.10190535 24.953125 394.4375 C15.73359427 415.32757361 7.40566737 432.48254523 -14.97265625 441.42578125 C-22.74204704 443.73146544 -30.24239851 444.55886892 -38.32421875 444.55078125 C-39.776325 444.55720894 -39.776325 444.55720894 -41.25776672 444.56376648 C-43.28715233 444.56946749 -45.31655835 444.57004158 -47.34594727 444.56567383 C-50.43996906 444.56249747 -53.53304796 444.58608276 -56.62695312 444.61132812 C-58.60937381 444.61360002 -60.59179703 444.61430513 -62.57421875 444.61328125 C-63.49103928 444.622491 -64.4078598 444.63170074 -65.35246277 444.64118958 C-70.91924331 444.60124811 -74.8314032 443.91771352 -79.75 441.25 C-84.48901973 436.21874072 -84.62792449 430.63812328 -85.25 424.0625 C-86.49042895 408.97955407 -86.49042895 408.97955407 -95.27124023 397.4050293 C-96.42483457 396.50916498 -97.58060715 395.61609863 -98.73852539 394.72583008 C-106.06076743 388.83055021 -110.49324448 380.3915034 -112.37109375 371.21484375 C-112.64182097 365.77568777 -111.28140498 362.48768597 -107.75 358.25 C-105.8263636 355.75639726 -104.75798857 354.27396571 -103.75 351.25 C-105.15185547 351.52263672 -105.15185547 351.52263672 -106.58203125 351.80078125 C-114.26683166 353.27904695 -121.96524564 354.66875072 -129.6875 355.9375 C-130.45489502 356.06874268 -131.22229004 356.19998535 -132.01293945 356.33520508 C-142.933011 358.09065809 -142.933011 358.09065809 -147.75 357.25 C-151.41112395 354.45197288 -152.08077312 350.62366413 -152.75 346.25 C-152.78815621 343.57088917 -152.74859597 340.9806279 -152.625 338.3125 C-152.43517406 330.79301978 -153.38037648 323.82051743 -154.75 316.4375 C-156.77861784 305.3846431 -157.06349878 294.74765868 -156.77734375 283.55541992 C-156.73673828 281.79935425 -156.73673828 281.79935425 -156.6953125 280.0078125 C-156.65937988 278.9677002 -156.62344727 277.92758789 -156.58642578 276.85595703 C-156.54625063 274.01234756 -156.54625063 274.01234756 -158.75 271.25 C-161.64375871 271.03733445 -161.64375871 271.03733445 -164.9375 271.3125 C-171.0239329 271.41326876 -174.15940733 271.35223175 -178.75 267.25 C-183.56044672 258.87242203 -183.94532708 249.67771793 -183.9375 240.25 C-183.93814453 239.42983398 -183.93878906 238.60966797 -183.93945312 237.76464844 C-183.88200282 230.99856984 -183.19444169 224.450599 -182.1875 217.765625 C-181.41848497 211.58603991 -181.51710471 206.92334629 -183.875 201.125 C-184.32488281 200.00222656 -184.77476562 198.87945312 -185.23828125 197.72265625 C-186.73945612 194.27422095 -188.38876156 190.92985501 -190.0625 187.5625 C-192.6712851 181.91126162 -194.180944 177.41916916 -192.75 171.25 C-190.60815619 165.68686112 -188.11514606 160.80308599 -184.16796875 156.3125 C-181.49500119 152.92702897 -180.6845596 150.68754592 -179.75 146.5 C-179.51591431 145.45694702 -179.51591431 145.45694702 -179.27709961 144.39282227 C-178.14336799 139.00884322 -177.33703228 133.58254256 -176.56640625 128.13671875 C-176.46266693 127.4078244 -176.35892761 126.67893005 -176.25204468 125.927948 C-175.7322344 122.24988054 -175.23201367 118.57071952 -174.76367188 114.88574219 C-173.07299962 102.08898481 -170.03066435 89.51323133 -164 78 C-163.66347412 77.34435059 -163.32694824 76.68870117 -162.98022461 76.01318359 C-145.35372902 42.7371471 -111.92090924 22.59043776 -77.09912109 11.39794922 C-52.22422986 3.90059992 -25.94526301 0.02192013 0 0 Z M-40.875 8.3125 C-41.52164612 8.41960297 -42.16829224 8.52670593 -42.83453369 8.63705444 C-55.78322602 10.80418878 -68.26671051 14.17890177 -80.75 18.25 C-80.255 19.24 -80.255 19.24 -79.75 20.25 C-80.99652344 20.65089844 -82.24304688 21.05179688 -83.52734375 21.46484375 C-114.0684673 31.54658488 -141.00526508 48.6788965 -157.4375 76.9375 C-157.7888501 77.53771973 -158.1402002 78.13793945 -158.50219727 78.75634766 C-159.31987692 80.21801065 -160.04452302 81.73100002 -160.75 83.25 C-160.255 84.24 -160.255 84.24 -159.75 85.25 C-157.44 82.61 -155.13 79.97 -152.75 77.25 C-153.719375 78.631875 -154.68875 80.01375 -155.6875 81.4375 C-166.39770979 98.61301936 -170.43086105 115.47071494 -172.41210938 135.46704102 C-172.6976271 137.81864259 -173.15083081 139.96623753 -173.75 142.25 C-173.81548492 143.83211573 -173.83578381 145.41670081 -173.8125 147 C-173.79896484 148.19882812 -173.79896484 148.19882812 -173.78515625 149.421875 C-173.77355469 150.02515625 -173.76195312 150.6284375 -173.75 151.25 C-173.12351562 151.44335938 -172.49703125 151.63671875 -171.8515625 151.8359375 C-171.03429687 152.09632813 -170.21703125 152.35671875 -169.375 152.625 C-168.56289062 152.88023437 -167.75078125 153.13546875 -166.9140625 153.3984375 C-164.75 154.25 -164.75 154.25 -162.75 156.25 C-163.306875 156.26417969 -163.86375 156.27835938 -164.4375 156.29296875 C-172.95929684 156.82558105 -178.06165339 160.13563516 -183.6875 166.4375 C-187.03807109 170.42918265 -188.10259354 172.80397195 -188.03515625 178.1796875 C-187.58179216 181.47123502 -185.66900711 183.58471235 -183.75 186.25 C-182.24134615 189.51968473 -180.96871465 192.86262203 -179.75 196.25 C-179.48904541 196.86141846 -179.22809082 197.47283691 -178.95922852 198.1027832 C-175.83078869 206.06716659 -176.61970105 213.97667986 -176.95507812 222.38867188 C-177.11895432 229.53127578 -176.83687409 234.27250242 -172.75 240.25 C-171.43 240.91 -170.11 241.57 -168.75 242.25 C-172.05 242.25 -175.35 242.25 -178.75 242.25 C-178.47862921 252.70677175 -178.47862921 252.70677175 -174.75 262.25 C-171.39913963 265.2179049 -168.27842928 265.78309094 -163.8125 265.60546875 C-160.11726559 264.9686007 -157.79525606 263.44258437 -154.75 261.25 C-154.06822584 259.92432801 -153.39808564 258.59246312 -152.75 257.25 C-150.125 256.5 -150.125 256.5 -147.75 256.25 C-148.245 257.03375 -148.74 257.8175 -149.25 258.625 C-151.18415935 263.29921842 -151.01602877 267.26442381 -150.75 272.25 C-149.43 271.26 -148.11 270.27 -146.75 269.25 C-147.100625 269.848125 -147.45125 270.44625 -147.8125 271.0625 C-149.08304698 273.35813214 -149.08304698 273.35813214 -147.75 276.25 C-147.09 275.59 -146.43 274.93 -145.75 274.25 C-146.09933594 274.8790625 -146.44867188 275.508125 -146.80859375 276.15625 C-149.71272403 281.61897664 -151.57053631 286.06448476 -151.75 292.25 C-151.80027344 292.92675781 -151.85054687 293.60351562 -151.90234375 294.30078125 C-152.16529053 300.3906286 -151.28245827 306.30755656 -150.375 312.3125 C-150.18599121 313.59991089 -150.18599121 313.59991089 -149.99316406 314.91333008 C-149.651296 317.03849618 -149.20891265 319.14700121 -148.75 321.25 C-148.09 321.58 -147.43 321.91 -146.75 322.25 C-146.42 320.27 -146.09 318.29 -145.75 316.25 C-144.76 319.88 -143.77 323.51 -142.75 327.25 C-140.44 327.58 -138.13 327.91 -135.75 328.25 C-133.0928556 324.41031949 -132.31759552 321.58023853 -132.0625 316.9375 C-131.99675781 315.86886719 -131.93101562 314.80023438 -131.86328125 313.69921875 C-131.82589844 312.89097656 -131.78851563 312.08273437 -131.75 311.25 C-131.42 311.25 -131.09 311.25 -130.75 311.25 C-130.64042969 311.93707031 -130.53085938 312.62414062 -130.41796875 313.33203125 C-130.25941406 314.23308594 -130.10085937 315.13414062 -129.9375 316.0625 C-129.78667969 316.95582031 -129.63585937 317.84914063 -129.48046875 318.76953125 C-128.69604607 321.43321256 -127.86372201 322.50690322 -125.75 324.25 C-124.76 323.92 -123.77 323.59 -122.75 323.25 C-122.09 319.62 -121.43 315.99 -120.75 312.25 C-120.3375 313.508125 -119.925 314.76625 -119.5 316.0625 C-118.54201089 318.55680344 -117.79792912 320.19319511 -116.0625 322.25 C-112.42515251 323.82290702 -109.70874311 323.62702315 -105.75 323.25 C-103.58333333 322.41666667 -103.58333333 322.41666667 -102.75 320.25 C-102.51940693 317.53114681 -102.61524177 314.99008408 -102.75 312.25 C-102.47285156 312.96027344 -102.19570312 313.67054688 -101.91015625 314.40234375 C-101.54792969 315.32144531 -101.18570313 316.24054688 -100.8125 317.1875 C-100.45285156 318.10402344 -100.09320313 319.02054687 -99.72265625 319.96484375 C-98.9503782 322.17418533 -98.9503782 322.17418533 -97.75 323.25 C-94.75 323.41666667 -94.75 323.41666667 -91.75 323.25 C-90.08657163 321.58657163 -90.38951903 319.4674291 -90.1875 317.1875 C-90.10371094 316.26839844 -90.01992187 315.34929687 -89.93359375 314.40234375 C-89.87300781 313.69207031 -89.81242187 312.98179687 -89.75 312.25 C-89.44707031 312.87648438 -89.14414063 313.50296875 -88.83203125 314.1484375 C-86.31641118 319.32493961 -86.31641118 319.32493961 -81.9375 322.8125 C-81.215625 322.956875 -80.49375 323.10125 -79.75 323.25 C-78.76 320.61 -77.77 317.97 -76.75 315.25 C-76.06164062 315.88228516 -76.06164062 315.88228516 -75.359375 316.52734375 C-74.74578125 317.07519531 -74.1321875 317.62304688 -73.5 318.1875 C-72.59507812 319.00541016 -72.59507812 319.00541016 -71.671875 319.83984375 C-69.65174223 321.32209564 -68.2215287 321.91729421 -65.75 322.25 C-64.52988609 321.24942021 -64.52988609 321.24942021 -64.6171875 319.25390625 C-64.62105469 318.04541016 -64.62105469 318.04541016 -64.625 316.8125 C-64.62242187 316.00941406 -64.61984375 315.20632813 -64.6171875 314.37890625 C-64.61421674 312.19602069 -64.61421674 312.19602069 -65.75 310.25 C-63.87595553 312.12404447 -62.11207487 313.98865015 -60.375 316 C-57.99301816 318.50763579 -57.99301816 318.50763579 -55.125 318.375 C-52.54366666 317.43181279 -52.54366666 317.43181279 -51.375 314.8125 C-49.75 312.25 -49.75 312.25 -46.0625 310.9375 C-44.969375 310.710625 -43.87625 310.48375 -42.75 310.25 C-42.75 309.59 -42.75 308.93 -42.75 308.25 C-47.92355017 307.83755779 -47.92355017 307.83755779 -52.4375 310.125 C-53.200625 310.82625 -53.96375 311.5275 -54.75 312.25 C-56.06138904 312.95885894 -57.38777017 313.64456452 -58.75 314.25 C-58.75 313.59 -58.75 312.93 -58.75 312.25 C-57.7909375 311.816875 -57.7909375 311.816875 -56.8125 311.375 C-54.59793921 310.42176549 -54.59793921 310.42176549 -53.75 308.25 C-53.0126737 302.03539265 -54.17076733 297.28868003 -56.4375 291.5 C-56.68121338 290.86231689 -56.92492676 290.22463379 -57.17602539 289.56762695 C-58.99485191 285.18165344 -61.22671962 282.38892252 -64.75 279.25 C-65.49378906 278.569375 -66.23757812 277.88875 -67.00390625 277.1875 C-72.46189609 272.60685201 -77.7075697 269.66721903 -84.37890625 267.16015625 C-86.75 266.25 -86.75 266.25 -87.75 265.25 C-83.79 265.58 -79.83 265.91 -75.75 266.25 C-76.74 265.26 -77.73 264.27 -78.75 263.25 C-78.05132812 263.62253906 -77.35265625 263.99507813 -76.6328125 264.37890625 C-75.26769531 265.08853516 -75.26769531 265.08853516 -73.875 265.8125 C-72.97007812 266.28816406 -72.06515625 266.76382812 -71.1328125 267.25390625 C-70.34648437 267.58261719 -69.56015625 267.91132813 -68.75 268.25 C-68.09 267.92 -67.43 267.59 -66.75 267.25 C-73.41066883 262.31617124 -81.19270651 257.25 -89.75 257.25 C-89.75 256.59 -89.75 255.93 -89.75 255.25 C-92.39 254.92 -95.03 254.59 -97.75 254.25 C-97.75 253.59 -97.75 252.93 -97.75 252.25 C-80.21757789 254.16997706 -68.34088465 259.78890106 -55.49609375 271.83203125 C-51.65977137 275.20995949 -47.53588495 278.36465138 -42.75 280.25 C-41.43 279.92 -40.11 279.59 -38.75 279.25 C-42.71 276.28 -46.67 273.31 -50.75 270.25 C-48.77 271.405 -46.79 272.56 -44.75 273.75 C-39.47894064 276.64315754 -35.76810718 278.57602362 -29.75 277.25 C-14.75841312 269.32545309 -4.27012652 250.72120377 0.5625 235.125 C1.13387194 233.16923677 1.69959803 231.21176792 2.25 229.25 C2.91 230.24 3.57 231.23 4.25 232.25 C7.29517096 231.64739691 9.25656496 230.68834993 11.765625 228.88671875 C16.84278498 225.62132053 22.16808805 224.40295835 28 223.0625 C29.00804687 222.81564453 30.01609375 222.56878906 31.0546875 222.31445312 C36.24752501 221.0693674 41.39994716 220.05352762 46.68359375 219.27734375 C51.00788222 218.58369258 54.05807379 217.76370379 57.5625 215 C58.36042969 214.38511719 59.15835938 213.77023438 59.98046875 213.13671875 C60.72941406 212.51410156 61.47835937 211.89148438 62.25 211.25 C62.96800781 210.65832031 63.68601562 210.06664062 64.42578125 209.45703125 C66.05656286 208.0811614 67.65720123 206.66966847 69.25 205.25 C66.58333333 209.25 63.91666667 213.25 61.25 217.25 C66.24395137 215.90170845 69.7893162 213.5665794 73.8125 210.4375 C78.44615521 206.94660226 82.62864808 204.4929283 88.1875 202.625 C93.59264949 200.77535392 96.16814389 198.73982299 99.57421875 194.2265625 C101.45546141 192.0076609 103.34620401 190.71717612 105.8125 189.1875 C110.23470612 186.43876572 113.05539919 183.34564206 116.25 179.25 C114.60552574 185.46245832 109.60022124 188.61031077 104.5625 192.125 C101.27209528 195.14861515 99.40054323 197.89765932 98.25 202.25 C98.27479814 204.64715391 98.36428961 207.0440622 98.5 209.4375 C98.77644235 217.17020689 96.36407073 220.96709287 92.0390625 227.171875 C89.32919773 231.83426243 89.22939245 236.02984337 90.25 241.25 C90.87207712 242.93381777 91.5280457 244.60652679 92.25 246.25 C98.41777906 245.12858563 102.5576812 240.56213927 106.1484375 235.65625 C107.92587227 232.8930763 109.60618093 230.09445162 111.25 227.25 C111.7140625 226.48429688 112.178125 225.71859375 112.65625 224.9296875 C115.52168068 220.05496092 117.43247862 215.11994988 119.26953125 209.78125 C120.53023035 206.5265368 122.15094602 204.0237499 124.25 201.25 C123.92 202.57 123.59 203.89 123.25 205.25 C130.65452254 199.15215791 134.1809299 189.66153077 136.609375 180.6015625 C137.25 178.25 137.25 178.25 138.26416016 175.53613281 C139.32417538 172.00274875 139.56629427 169.00291599 139.6640625 165.3203125 C139.70273437 164.03125 139.74140625 162.7421875 139.78125 161.4140625 C139.81269758 160.06771293 139.84394511 158.72135868 139.875 157.375 C139.91323041 156.00518486 139.95228501 154.63539245 139.9921875 153.265625 C140.08622478 149.92730166 140.16919143 146.58866975 140.25 143.25 C140.58 149.85 140.91 156.45 141.25 163.25 C146.07537208 156.01194188 144.40400507 144.97145554 144.38037109 136.48413086 C144.37500403 134.18922342 144.38034607 131.89451093 144.38671875 129.59960938 C144.38605799 128.11718708 144.38477686 126.6347649 144.3828125 125.15234375 C144.38584885 124.14106667 144.38584885 124.14106667 144.38894653 123.10935974 C144.36616757 118.40455696 143.90203704 113.89940615 143.25 109.25 C142.59 109.25 141.93 109.25 141.25 109.25 C140.28583976 106.43938194 139.32859159 103.62670402 138.375 100.8125 C138.10558594 100.02939453 137.83617187 99.24628906 137.55859375 98.43945312 C135.75347132 93.09012689 134.39033641 87.78007804 133.25 82.25 C134.9 86.54 136.55 90.83 138.25 95.25 C139.40956151 90.61175395 138.48654333 88.19438224 136.8125 83.9375 C136.40197388 82.88115356 136.40197388 82.88115356 135.9831543 81.8034668 C124.58179216 53.27616924 102.33390775 31.67149328 74.05322266 19.28808594 C55.47535109 11.64690274 37.32570397 8.04165746 17.25 8.0625 C16.54022003 8.0617749 15.83044006 8.0610498 15.09915161 8.06030273 C-0.90078998 8.06208902 -16.80016698 9.05509612 -32.75 10.25 C-27.47 9.26 -22.19 8.27 -16.75 7.25 C-16.75 6.92 -16.75 6.59 -16.75 6.25 C-24.97275251 5.8973928 -32.7773573 6.94760579 -40.875 8.3125 Z " fill="#040404" transform="translate(277.75,33.75)"/>
<path d="M0 0 C-0.31215652 4.0580348 -1.24900169 6.40309416 -3.5625 9.625 C-6.55742375 14.66270412 -6.45745448 19.54711202 -6.4375 25.25 C-6.43375366 26.56411865 -6.43375366 26.56411865 -6.42993164 27.90478516 C-6.32745038 32.34337172 -6.07252128 35.97148474 -4 40 C-4.33 36.7 -4.66 33.4 -5 30 C-3.18573327 32.72140009 -2.50730077 34.32006116 -1.703125 37.39453125 C-1.46956299 38.26094238 -1.23600098 39.12735352 -0.99536133 40.02001953 C-0.74939209 40.94153809 -0.50342285 41.86305664 -0.25 42.8125 C1.87006603 50.53056714 4.40207063 57.64175862 7.67578125 64.9453125 C11.83594411 74.54191238 14.08426326 85.2399464 11.30859375 95.57421875 C10.35957958 97.8494703 9.27611447 99.89181088 8 102 C7.59910156 102.68964844 7.19820312 103.37929688 6.78515625 104.08984375 C3.73485724 108.97916362 0.12752301 113.39953623 -3.5625 117.8125 C-4.02148682 118.36389648 -4.48047363 118.91529297 -4.95336914 119.48339844 C-7.71850829 122.72648121 -10.5866267 125.45077184 -14 128 C-14.66 127.67 -15.32 127.34 -16 127 C-15.566875 126.09507812 -15.566875 126.09507812 -15.125 125.171875 C-14.75375 124.37265625 -14.3825 123.5734375 -14 122.75 C-13.443125 121.56664062 -13.443125 121.56664062 -12.875 120.359375 C-11.76818748 117.7943343 -11.76818748 117.7943343 -12 114 C-12.17273438 114.57105469 -12.34546875 115.14210938 -12.5234375 115.73046875 C-14.44995409 121.28908772 -17.05584313 125.63860028 -20.75 130.1875 C-29.79935459 141.46761025 -35.08021571 154.14551133 -40.23828125 167.56640625 C-41.62940972 171.15717579 -43.20352164 174.58945492 -45 178 C-45.33 176.68 -45.66 175.36 -46 174 C-46.17015625 174.52207031 -46.3403125 175.04414063 -46.515625 175.58203125 C-47.03379181 177.15582513 -47.55922649 178.72723512 -48.08984375 180.296875 C-48.70187701 182.11458751 -49.29800585 183.93772506 -49.87890625 185.765625 C-54.11794429 198.46500256 -61.80149132 205.74159327 -73.42578125 212.38671875 C-82.0275634 216.49662887 -91.04833252 217.32535367 -100.4609375 217.15234375 C-101.41392731 217.13917618 -102.36691711 217.12600861 -103.3487854 217.11244202 C-105.34379236 217.08026581 -107.33871175 217.04214844 -109.33349609 216.99829102 C-112.38790586 216.93724205 -115.44118221 216.91436046 -118.49609375 216.89257812 C-120.44275291 216.85649628 -122.38937196 216.81816494 -124.3359375 216.77734375 C-125.2463681 216.77500229 -126.15679871 216.77266083 -127.09481812 216.77024841 C-133.34302296 216.5780262 -133.34302296 216.5780262 -136.54150391 213.76391602 C-138.78687299 209.50884011 -139.11146109 205.76311406 -139.2109375 201.015625 C-139.23929688 200.07976562 -139.26765625 199.14390625 -139.296875 198.1796875 C-139.34853679 196.24237049 -139.39292978 194.3048446 -139.4296875 192.3671875 C-139.61247132 186.80751297 -140.33744688 182.15570346 -142.28759766 176.94042969 C-143.12374484 174.66294585 -143.61408123 172.39269636 -144 170 C-142.38991848 170.90623725 -140.78714075 171.82545799 -139.1875 172.75 C-137.84751953 173.51570313 -137.84751953 173.51570313 -136.48046875 174.296875 C-133.03582027 176.66201947 -131.32717735 178.69129061 -130.3125 182.75 C-130.1578125 183.86375 -130.1578125 183.86375 -130 185 C-129.9690625 183.1128125 -129.9690625 183.1128125 -129.9375 181.1875 C-129.92589844 180.47980469 -129.91429687 179.77210938 -129.90234375 179.04296875 C-129.91736783 176.79694539 -129.91736783 176.79694539 -131 174 C-131.12781786 171.32605036 -131.04391871 168.67904143 -131 166 C-127.39827553 167.349033 -124.1705113 168.95716982 -120.875 170.9375 C-120.02679688 171.44152344 -119.17859375 171.94554687 -118.3046875 172.46484375 C-116.25233816 173.83191712 -114.6562849 175.18674692 -113 177 C-114.06535669 174.21368251 -115.201546 171.62791508 -116.625 169 C-118.00306075 165.993322 -118.28670813 164.24935882 -118 161 C-114.10426476 159.70142159 -112.79606549 160.61377215 -109.0625 162.1875 C-108.02222656 162.61417969 -106.98195312 163.04085937 -105.91015625 163.48046875 C-102.92309291 165.04015686 -101.07878692 166.35648409 -99 169 C-98.390625 171.359375 -98.390625 171.359375 -98.25 173.75 C-98.19328125 174.54921875 -98.1365625 175.3484375 -98.078125 176.171875 C-98.03945312 177.07679688 -98.03945312 177.07679688 -98 178 C-95.71710937 171.15132811 -96.72168825 163.03071463 -98 156 C-90.90661163 155.5743967 -86.38104974 156.25860832 -80.6875 160.875 C-78.77729672 163.28044117 -78.33584868 164.9773619 -78 168 C-78.10902086 162.87601977 -79.18882351 160.44768076 -82.5 156.5 C-85.81117649 152.55231924 -86.89097914 150.12398023 -87 145 C-86.28714844 144.79246094 -85.57429688 144.58492187 -84.83984375 144.37109375 C-78.66668007 142.38537892 -74.68001773 140.43654332 -70.53515625 135.390625 C-69 134 -69 134 -65 134 C-61.43518374 138.09293719 -61.32812159 142.8066272 -61 148 C-60.89600139 141.27475668 -60.97728158 134.80435405 -62.07421875 128.15625 C-61.97504288 125.27493012 -60.75814651 124.24791589 -59 122 C-58.28004126 120.00437291 -57.64041221 117.97879506 -57.0625 115.9375 C-55.51422389 110.6495416 -53.7773736 105.49383843 -51.83203125 100.33984375 C-47.1505762 87.17462509 -50.40124487 76.07574635 -56 64 C-60.35392547 53.95247969 -62.42108857 44.99509047 -62 34 C-61.67 34 -61.34 34 -61 34 C-60.76216797 35.52367187 -60.76216797 35.52367187 -60.51953125 37.078125 C-59.04495013 45.95806764 -56.91990541 53.81932783 -53 62 C-53.66 59.69 -54.32 57.38 -55 55 C-51.73435552 57.6527376 -50.73529921 60.80364271 -49.3125 64.6875 C-48.87550781 65.86699219 -48.43851562 67.04648437 -47.98828125 68.26171875 C-47.66214844 69.16535156 -47.33601563 70.06898438 -47 71 C-48.27462669 63.11744021 -50.61489034 56.15804202 -53.9609375 48.921875 C-56.09059735 44.27179204 -56.09059735 44.27179204 -55 41 C-53.35 43.64 -51.7 46.28 -50 49 C-50.3609375 48.26394531 -50.721875 47.52789062 -51.09375 46.76953125 C-51.78984375 45.30580078 -51.78984375 45.30580078 -52.5 43.8125 C-53.19609375 42.36810547 -53.19609375 42.36810547 -53.90625 40.89453125 C-55.01011064 37.97324292 -55.38358458 36.08465932 -55 33 C-54.01 32.01 -54.01 32.01 -53 31 C-49.96939188 31.24572498 -48.17394571 31.88556203 -45.625 33.5625 C-42.15332388 35.46365597 -39.91453495 35.41205631 -36 35 C-32.64794393 33.82535799 -32.64794393 33.82535799 -30 32 C-29.505 30.515 -29.505 30.515 -29 29 C-29.66 29.33 -30.32 29.66 -31 30 C-29.80916611 24.93895595 -28.52977508 21.94504274 -25 18 C-24.01 16.7315625 -24.01 16.7315625 -23 15.4375 C-21.11229903 13.13686444 -19.10214053 11.10214053 -17 9 C-16.1028125 7.7625 -16.1028125 7.7625 -15.1875 6.5 C-11.00072843 1.7151182 -6.51678441 -0.63578385 0 0 Z " fill="#FAFAFA" transform="translate(337,256)"/>
<path d="M0 0 C5.31518989 3.35192155 9.81489222 6.92410642 11.71875 13.17578125 C13.65558582 22.62417166 11.9297046 31.04668064 7.16796875 39.3671875 C5.12109375 41.7109375 5.12109375 41.7109375 3.16796875 43.3671875 C2.50796875 43.3671875 1.84796875 43.3671875 1.16796875 43.3671875 C0.17796875 44.1096875 0.17796875 44.1096875 -0.83203125 44.8671875 C-2.83203125 46.3671875 -2.83203125 46.3671875 -4.83203125 46.3671875 C-6.29133582 47.42096524 -7.72456987 48.51096554 -9.14453125 49.6171875 C-16.51649674 54.89204815 -24.73645131 57.70759094 -33.83203125 57.3671875 C-30.23923843 53.60330931 -26.78020189 51.90661837 -21.83203125 50.3671875 C-24.91585739 50.67494296 -27.9989849 50.9892234 -31.08203125 51.3046875 C-31.95472656 51.39169922 -32.82742187 51.47871094 -33.7265625 51.56835938 C-34.57089844 51.65537109 -35.41523438 51.74238281 -36.28515625 51.83203125 C-37.06020508 51.9105835 -37.83525391 51.98913574 -38.63378906 52.07006836 C-40.75826163 52.35721664 -42.7649965 52.80513522 -44.83203125 53.3671875 C-44.50203125 54.0271875 -44.17203125 54.6871875 -43.83203125 55.3671875 C-48.76326952 54.93207824 -51.24804417 52.63952353 -54.83203125 49.3671875 C-55.37859375 48.91730469 -55.92515625 48.46742188 -56.48828125 48.00390625 C-59.31970134 44.55517073 -58.22303905 39.56801484 -57.83203125 35.3671875 C-56.99745215 30.65709164 -55.97128605 26.01236334 -54.83203125 21.3671875 C-55.49203125 21.3671875 -56.15203125 21.3671875 -56.83203125 21.3671875 C-57.82203125 19.3871875 -58.81203125 17.4071875 -59.83203125 15.3671875 C-60.82203125 15.3671875 -61.81203125 15.3671875 -62.83203125 15.3671875 C-68.57235016 6.14167497 -68.57235016 6.14167497 -67.83203125 0.3671875 C-68.45851562 0.39039063 -69.085 0.41359375 -69.73046875 0.4375 C-70.95636719 0.46457031 -70.95636719 0.46457031 -72.20703125 0.4921875 C-73.42519531 0.52699219 -73.42519531 0.52699219 -74.66796875 0.5625 C-76.83203125 0.3671875 -76.83203125 0.3671875 -78.83203125 -1.6328125 C-78.50203125 -2.6228125 -78.17203125 -3.6128125 -77.83203125 -4.6328125 C-77.50203125 -4.3028125 -77.17203125 -3.9728125 -76.83203125 -3.6328125 C-72.64280878 -3.45454771 -70.69951415 -3.93327429 -67.390625 -6.6015625 C-65.67022674 -8.21952483 -63.95282316 -9.84067679 -62.23828125 -11.46484375 C-46.21095077 -25.90505222 -15.46359939 -8.8705919 0 0 Z " fill="#020202" transform="translate(230.83203125,213.6328125)"/>
<path d="M0 0 C0.08636719 0.825 0.17273438 1.65 0.26171875 2.5 C2.079922 17.44596429 6.19427246 29.20752641 13.96582031 42.04663086 C19.45804958 51.20754163 24.98330943 61.42877465 22.44140625 72.4140625 C19.39639638 80.07395399 14.86304086 86.39056326 10 93 C9.18208984 94.17949219 9.18208984 94.17949219 8.34765625 95.3828125 C7.90292969 95.91648437 7.45820313 96.45015625 7 97 C6.34 97 5.68 97 5 97 C4.67 93.7 4.34 90.4 4 87 C3.34 87 2.68 87 2 87 C-7.03680386 97.58536415 -14.13171327 110.01010031 -19 123 C-21.02276831 116.93169506 -17.48044317 110.10788506 -14.82470703 104.53271484 C-12.00724403 98.95507552 -9.03489867 93.4619505 -6 88 C-6.40992188 88.55429687 -6.81984375 89.10859375 -7.2421875 89.6796875 C-8.05042969 90.76636719 -8.05042969 90.76636719 -8.875 91.875 C-9.67550781 92.95394531 -9.67550781 92.95394531 -10.4921875 94.0546875 C-12 96 -12 96 -14 98 C-13.33501617 93.61110675 -11.81242323 90.0188515 -10 86 C-11.485 86.99 -11.485 86.99 -13 88 C-11 82 -11 82 -9 76 C-8.85596652 74.66636297 -8.75409577 73.32781954 -8.68359375 71.98828125 C-8.64169922 71.23095703 -8.59980469 70.47363281 -8.55664062 69.69335938 C-8.51732422 68.90767578 -8.47800781 68.12199219 -8.4375 67.3125 C-8.39431641 66.51521484 -8.35113281 65.71792969 -8.30664062 64.89648438 C-8.20072632 62.93118553 -8.09987449 60.96561504 -8 59 C-8.66 59 -9.32 59 -10 59 C-10 56.03 -10 53.06 -10 50 C-10.99 51.32 -11.98 52.64 -13 54 C-13.33 52.02 -13.66 50.04 -14 48 C-14.33 48 -14.66 48 -15 48 C-15.28875 46.9275 -15.5775 45.855 -15.875 44.75 C-17.39915462 39.61056986 -17.39915462 39.61056986 -20.5625 35.4375 C-22 34 -22 34 -23 31 C-23.99 31 -24.98 31 -26 31 C-25.67 30.01 -25.34 29.02 -25 28 C-25.66 27.34 -26.32 26.68 -27 26 C-26.67 25.34 -26.34 24.68 -26 24 C-26.825 23.54625 -27.65 23.0925 -28.5 22.625 C-29.325 22.08875 -30.15 21.5525 -31 21 C-31 20.34 -31 19.68 -31 19 C-30.43152344 18.81824219 -29.86304688 18.63648438 -29.27734375 18.44921875 C-27.65797078 17.92204391 -26.04361092 17.37931047 -24.43359375 16.82421875 C-22.47372107 16.16044165 -20.48961145 15.56846042 -18.5 15 C-13.78033831 12.98201381 -11.03041022 8.46485821 -8.015625 4.49609375 C-5.48320265 1.36001258 -4.11049594 0 0 0 Z " fill="#040404" transform="translate(324,277)"/>
<path d="M0 0 C2.16760306 1.54960559 4.0371555 3.18436884 6 5 C5.67 5.66 5.34 6.32 5 7 C3.02 5.68 1.04 4.36 -1 3 C-0.2575 3.7425 0.485 4.485 1.25 5.25 C2.1575 6.1575 3.065 7.065 4 8 C4.7425 8.70125 5.485 9.4025 6.25 10.125 C9.80250593 13.93125635 9.33102533 18.48728651 9.27734375 23.4140625 C8.09587829 38.68991164 2.57801591 51.74434631 -9 62 C-9.66 61.67 -10.32 61.34 -11 61 C-11.721875 61.309375 -12.44375 61.61875 -13.1875 61.9375 C-16.5868902 63.22171408 -19.39556356 63.14135045 -23 63 C-21.515 62.01 -21.515 62.01 -20 61 C-24.455 59.02 -24.455 59.02 -29 57 C-28.67 56.34 -28.34 55.68 -28 55 C-26.02 55.66 -24.04 56.32 -22 57 C-22.32226562 55.86046875 -22.64453125 54.7209375 -22.9765625 53.546875 C-24.09354956 49.08285288 -24.27973432 44.83118749 -24.375 40.25 C-24.65308844 32.59545771 -26.07707002 26.12464183 -29 19 C-29.33 18.01 -29.66 17.02 -30 16 C-30.66 16 -31.32 16 -32 16 C-32.33 17.32 -32.66 18.64 -33 20 C-33.144375 19.236875 -33.28875 18.47375 -33.4375 17.6875 C-33.9632594 14.91827092 -33.9632594 14.91827092 -35 12 C-32.8120245 5.8463189 -28.65307206 1.75111354 -22.82421875 -1.04296875 C-14.90223627 -3.95727318 -7.56964387 -3.98730212 0 0 Z " fill="#030303" transform="translate(131,205)"/>
<path d="M0 0 C0.33 0 0.66 0 1 0 C2.36224692 10.47124737 1.73982916 17.99351593 -3.25 27.3125 C-4.52587914 29.77029818 -4.99650547 30.92312032 -5.125 33.75 C-2.85010232 38.29979535 2.26508937 40.1468269 6.5625 42.5 C10.0012304 44.39623076 13.15940744 46.24817595 16 49 C16.14824219 49.63421875 16.29648438 50.2684375 16.44921875 50.921875 C17.10241502 53.38641696 18.04552806 54.37579459 19.8125 56.1875 C25.45114049 62.58701728 27.71782803 68.92715869 27.39453125 77.4765625 C26.82859865 81.0962898 25.42470385 83.29818714 23 86 C22.01 86.66 21.02 87.32 20 88 C18.515 87.505 18.515 87.505 17 87 C17.99 86.01 17.99 86.01 19 85 C18.38511719 85.09539062 17.77023438 85.19078125 17.13671875 85.2890625 C16.32847656 85.39992188 15.52023438 85.51078125 14.6875 85.625 C13.48673828 85.79902344 13.48673828 85.79902344 12.26171875 85.9765625 C10 86 10 86 7 84 C6.34 83.01 5.68 82.02 5 81 C4.4225 81.78375 3.845 82.5675 3.25 83.375 C1.17102363 85.80047244 -0.09040333 86.85694417 -3 88 C-7.43861014 82.67366783 -9.27756094 79.64975331 -9.1875 72.625 C-9.17783203 70.97371094 -9.17783203 70.97371094 -9.16796875 69.2890625 C-9.00578601 66.11329813 -8.52217991 63.13307946 -8 60 C-7.40456457 51.03918481 -7.59670947 44.81228965 -12 37 C-12.09813159 32.19155233 -10.24411615 30.01266904 -7.40625 26.30859375 C-2.72937492 18.63072383 -0.46730479 8.87879095 0 0 Z " fill="#060606" transform="translate(146,222)"/>
<path d="M0 0 C0.66 0.33 1.32 0.66 2 1 C1.21625 1.763125 0.4325 2.52625 -0.375 3.3125 C-4.10735523 7.02409861 -4.10735523 7.02409861 -5.1015625 11.9765625 C-4.25232969 15.34077226 -4.25232969 15.34077226 -0.6484375 16.8359375 C0.7701599 17.36500525 2.19511584 17.87724247 3.625 18.375 C14.70218797 22.74824609 18.78939122 29.02534383 24.32421875 39.4609375 C26.10542389 42.15973317 26.9553188 43.0453597 30 44 C32.45474223 44.27751792 32.45474223 44.27751792 35 44.1875 C35.845625 44.18105469 36.69125 44.17460937 37.5625 44.16796875 C39.83252477 44.01154076 41.81961604 43.63089814 44 43 C43.01 43.99 42.02 44.98 41 46 C44.3 46 47.6 46 51 46 C48.38058783 47.74627478 46.96175123 48.38722388 44 49 C51.32947167 49.44874316 55.81487304 48.32507053 62.25 44.75 C64 44 64 44 67 45 C56.36992923 54.04686874 42.7680962 59.94761299 29 62 C27.82824219 62.1753125 26.65648437 62.350625 25.44921875 62.53125 C18.89674455 63.28926704 18.89674455 63.28926704 16 63 C13.828125 61.10546875 13.828125 61.10546875 12 59 C10.00787329 57.98440599 8.0088485 56.98210371 6 56 C4.15464201 52.30928402 4.71096813 47.57425627 4.65820312 43.47265625 C4.42071059 37.14320405 2.47358959 33.54122681 -2 28.9453125 C-2.66 28.34460938 -3.32 27.74390625 -4 27.125 C-8.83400962 22.3901958 -11.68317498 18.11544601 -12.375 11.3125 C-12.01899113 8.16775496 -11.37454814 5.83500553 -10 3 C-9.34 4.32 -8.68 5.64 -8 7 C-7.236875 6.21625 -6.47375 5.4325 -5.6875 4.625 C-3 2 -3 2 0 0 Z " fill="#070707" transform="translate(269,178)"/>
<path d="M0 0 C0.33 0 0.66 0 1 0 C0.93039062 0.7528125 0.86078125 1.505625 0.7890625 2.28125 C0.23698053 13.1125725 3.49135539 21.93912513 8.2578125 31.53125 C10.08624791 37.61320358 7.37304216 42.98334572 4.5625 48.3125 C4.24990234 48.93189453 3.93730469 49.55128906 3.61523438 50.18945312 C2.27457363 52.79991516 1.08716571 54.91283429 -1 57 C-3.625 57.625 -3.625 57.625 -6 58 C-6.09796875 57.24976563 -6.1959375 56.49953125 -6.296875 55.7265625 C-7.06163819 50.49189035 -7.90908553 45.82472157 -10.125 41 C-13.54078977 32.9181125 -12.82916809 25.51091276 -9.875 17.375 C-4.40625 4.40625 -4.40625 4.40625 0 0 Z " fill="#FAFAFA" transform="translate(268,299)"/>
<path d="M0 0 C0.33 0 0.66 0 1 0 C1 6.43517726 -0.65765119 10.56438921 -4 16 C-7.78696751 22.25111871 -10.04971763 27.0180068 -8.5078125 34.3359375 C-6.32098875 41.73182455 -2.39211866 46.92326203 3.31640625 51.99609375 C7.99200412 57.56124852 8.4201119 62.97703633 8.1875 69.9375 C8.16719727 71.10635742 8.16719727 71.10635742 8.14648438 72.29882812 C8.11150224 74.19952404 8.05770959 76.09985834 8 78 C9.74153646 78.71004232 11.48307292 79.42008464 13.22460938 80.13012695 C15 81 15 81 17.5 83.1875 C20.91964496 85.66674259 22.79565116 85.28306507 27 85 C30.2649348 84.3694223 33.43439123 83.49479941 36.625 82.5625 C37.53000244 82.29880615 38.43500488 82.0351123 39.36743164 81.76342773 C46.19522227 79.6966657 52.84418772 77.28374404 59.4375 74.5625 C60.74098389 74.04248413 60.74098389 74.04248413 62.07080078 73.51196289 C69.2111448 70.43930258 72.84700472 66.26211406 77.0625 59.875 C79.47310976 56.29796617 82.08633617 52.95683192 86 51 C84.52464833 55.5795598 81.91607925 58.85476437 78.8125 62.4375 C78.32144775 63.01298584 77.83039551 63.58847168 77.32446289 64.18139648 C74.6960355 67.21333512 72.04419265 70.00636047 68.9375 72.5625 C65.93323827 74.62731443 65.93323827 74.62731443 65.296875 77.02734375 C63.53407335 79.70871373 61.57286676 79.91875297 58.5402832 80.57055664 C57.80511475 80.71227295 57.06994629 80.85398926 56.3125 81 C54.77043897 81.33019487 53.22877854 81.66226548 51.6875 81.99609375 C50.51574219 82.24335205 50.51574219 82.24335205 49.3203125 82.49560547 C45.79365817 83.26223719 42.30254912 84.1451612 38.8125 85.0625 C37.05873047 85.51302734 37.05873047 85.51302734 35.26953125 85.97265625 C31.96012882 87.01252822 29.09500108 88.45035907 26 90 C23.19247203 90.66575571 20.80470147 90.7152552 18 90 C16.24554663 88.62749701 14.89178289 87.14452668 13.44140625 85.45703125 C11.31479681 83.30736913 8.85530219 82.82486508 6 82 C3.61907075 80.24319783 3.04954591 79.20316755 2.33984375 76.29296875 C2.20707031 75.26816406 2.07429688 74.24335938 1.9375 73.1875 C1.46291203 69.88911358 0.99312151 66.97936452 -0.0625 63.8125 C-0.93197098 61.20408705 -1.18141663 59.21466913 -1.375 56.5 C-2.13625929 49.01220368 -7.22857483 44.50333872 -12.1953125 39.24609375 C-15.7960531 34.76465252 -16.57732443 30.67702358 -16 25 C-13.96573975 18.56955318 -9.47360031 13.71668704 -5.12109375 8.7109375 C-2.95037092 5.93656983 -1.46589884 3.19406712 0 0 Z " fill="#0A0A0A" transform="translate(265,158)"/>
<path d="M0 0 C0.33 0 0.66 0 1 0 C1.15855469 1.01578125 1.31710937 2.0315625 1.48046875 3.078125 C2.95504987 11.95806764 5.08009459 19.81932783 9 28 C8.34 25.69 7.68 23.38 7 21 C10.20210703 23.62929609 11.25385985 26.6769596 12.6875 30.5 C13.34298828 32.21703125 13.34298828 32.21703125 14.01171875 33.96875 C15 37 15 37 15 40 C15.66 40 16.32 40 17 40 C19.6061652 47.98138093 20.85788932 57.58580753 18.08984375 65.65234375 C16.86059995 67.90134608 15.50392749 69.92575196 14 72 C13.47277344 72.83917969 12.94554687 73.67835938 12.40234375 74.54296875 C9.5093232 79.12773104 9.5093232 79.12773104 8 81 C7.34 81 6.68 81 6 81 C6.55458491 75.87008959 8.23914036 71.37225656 10.0625 66.5859375 C14.86417165 53.34132654 11.64618376 42.17804341 6 30 C1.64607453 19.95247969 -0.42108857 10.99509047 0 0 Z " fill="#D9D9D9" transform="translate(275,290)"/>
<path d="M0 0 C1.61251727 2.87862079 2.29952565 5.16017175 2.5625 8.44140625 C2.63726562 9.27220703 2.71203125 10.10300781 2.7890625 10.95898438 C2.93000192 12.69854226 3.07062553 14.43812577 3.2109375 16.17773438 C3.28570312 17.00724609 3.36046875 17.83675781 3.4375 18.69140625 C3.49808594 19.44623291 3.55867188 20.20105957 3.62109375 20.97875977 C3.92060332 23.30545857 3.92060332 23.30545857 6 26 C6.33 26 6.66 26 7 26 C7.3955708 37.21882727 7.66796984 46.60003777 3 57 C2.54176922 58.66108657 2.10419522 60.32801043 1.6875 62 C-0.03558082 67.96377417 -3.28280456 73.0646393 -7 78 C-7.99 78.495 -7.99 78.495 -9 79 C-8.72285156 77.90300781 -8.44570313 76.80601562 -8.16015625 75.67578125 C-7.79420763 74.22137007 -7.42832573 72.7669421 -7.0625 71.3125 C-6.88009766 70.59126953 -6.69769531 69.87003906 -6.50976562 69.12695312 C-6.24389648 68.06831055 -6.24389648 68.06831055 -5.97265625 66.98828125 C-5.71379639 65.95888428 -5.71379639 65.95888428 -5.44970703 64.90869141 C-5.07067756 63.29997676 -4.77373786 61.67224463 -4.49609375 60.04296875 C-4.25052734 59.03169922 -4.25052734 59.03169922 -4 58 C-3.01 57.505 -3.01 57.505 -2 57 C0.00397124 50.20876411 0.18118254 43.65317087 0.1875 36.625 C0.18830566 35.74481201 0.18911133 34.86462402 0.18994141 33.95776367 C0.15660799 30.09886555 -0.0223419 26.73993781 -1 23 C-1.35529563 15.28799477 -0.96742516 7.65302403 0 0 Z " fill="#E7E7E7" transform="translate(410,160)"/>
<path d="M0 0 C1 2 1 2 0.375 5.25 C-1.19870107 9.54191202 -2.96022887 11.64845747 -6 15 C-7.52846661 18.05693322 -7.23242445 20.62984547 -7 24 C-5.70532323 26.05990478 -5.70532323 26.05990478 -4 28 C-3.25743797 29.67883589 -2.51822902 31.35984885 -1.83203125 33.0625 C-0.62576556 35.87145672 0.85153036 38.52813471 2.328125 41.203125 C3 43 3 43 2 46 C1.5875 45.24976563 1.175 44.49953125 0.75 43.7265625 C0.1725 42.70304687 -0.405 41.67953125 -1 40.625 C-1.556875 39.62726563 -2.11375 38.62953125 -2.6875 37.6015625 C-3.44923463 36.39524801 -4.22137682 35.19548326 -5 34 C-5.49177734 33.19224121 -5.98355469 32.38448242 -6.49023438 31.55224609 C-12.19326863 23.22625143 -19.27041585 21.0302937 -28.5 18.375 C-29.90981972 17.94193297 -31.31868763 17.50575467 -32.7265625 17.06640625 C-36.14083224 16.00822878 -39.56599448 14.99254249 -43 14 C-43 13.67 -43 13.34 -43 13 C-40.9163691 13.14151828 -38.83310062 13.28837936 -36.75 13.4375 C-35.58984375 13.51871094 -34.4296875 13.59992188 -33.234375 13.68359375 C-30.67159861 13.93430014 -28.46647059 14.33595023 -26 15 C-18.10842468 16.25692429 -11.47027615 13.47867463 -5 9 C-3.19666732 6.52863298 -3.19666732 6.52863298 -2 4 C-1.608125 3.236875 -1.21625 2.47375 -0.8125 1.6875 C-0.544375 1.130625 -0.27625 0.57375 0 0 Z " fill="#111111" transform="translate(253,164)"/>
<path d="M0 0 C2.96808431 1.62765914 4.82260318 3.41887897 6.9375 6.0625 C7.66547045 9.94500907 7.31086509 11.47578343 5.1875 14.8125 C2.08785945 17.91214055 0.26699183 18.86861577 -4.0625 19.5 C-7.0625 19.0625 -7.0625 19.0625 -9.375 16.875 C-11.08659797 14.02233672 -12.0625 12.38692028 -12.0625 9.0625 C-9.48782535 4.84003357 -5.25247663 0.15916596 0 0 Z " fill="#F8F8F8" transform="translate(256.0625,374.9375)"/>
<path d="M0 0 C2.39394225 2.39394225 2.32371853 3.34669254 2.75 6.625 C4.26869327 14.80710715 9.55654468 19.85877569 15.484375 25.359375 C19.95734026 30.20124461 19.36833366 35.63978043 19.47851562 41.88867188 C19.56318893 46.16837299 19.56318893 46.16837299 21.375 49.9296875 C23.54269534 51.35744837 25.76441319 52.68157701 28 54 C28.66 54.66 29.32 55.32 30 56 C43.42154903 56.42640322 55.64557578 52.59851351 67.44042969 46.60522461 C69.26846811 45.68504967 71.13191621 44.83588834 73 44 C73.66 44.33 74.32 44.66 75 45 C75 45.66 75 46.32 75 47 C65.21195134 51.13564324 55.4285619 55.12206895 45.1875 58 C44.105896 58.31070435 44.105896 58.31070435 43.00244141 58.62768555 C38.59544839 59.81124551 34.59883791 60.39030728 30 60 C27 57.6875 27 57.6875 25.75 56.38671875 C23.09234722 54.28076621 20.14072232 53.26295556 17 52 C17.06960938 50.2984375 17.06960938 50.2984375 17.140625 48.5625 C17.79832795 37.05631935 17.79832795 37.05631935 13 27 C11.00981662 24.94864295 8.96507612 22.96650689 6.90234375 20.98828125 C1.06348845 14.88565836 0.30114948 8.19126579 0 0 Z " fill="#E9E9E9" transform="translate(255,184)"/>
<path d="M0 0 C3.56511829 1.78255915 4.79771684 2.60031452 7.1875 5.5 C7.95126953 6.41265625 7.95126953 6.41265625 8.73046875 7.34375 C11.65750051 11.16240066 11.07550298 14.31881531 11 19 C8 20 8 20 0 20 C0 13.4 0 6.8 0 0 Z " fill="#F9F9F9" transform="translate(160,361)"/>
<path d="M0 0 C1.75 0.875 1.75 0.875 3.75 3.875 C4.19921875 6.5390625 4.19921875 6.5390625 4.4375 9.5 C4.52386719 10.48226563 4.61023438 11.46453125 4.69921875 12.4765625 C4.71597656 13.26804687 4.73273438 14.05953125 4.75 14.875 C3.75 15.875 3.75 15.875 1 16.1875 C-3.00871982 15.80204617 -4.43176546 14.69323454 -7.25 11.875 C-8.95828411 9.4678724 -9.25 8.27050794 -9.25 5.3125 C-8.25 2.875 -8.25 2.875 -5.4375 1 C-2.25 -0.125 -2.25 -0.125 0 0 Z " fill="#F8F8F8" transform="translate(241.25,392.125)"/>
<path d="M0 0 C2.39127864 2.98033262 4.08644212 5.97094525 5.6875 9.4375 C6.34298828 10.82775391 6.34298828 10.82775391 7.01171875 12.24609375 C8.01511167 15.0421096 8.19756379 17.05790136 8 20 C4.1389146 21.43668294 1.103573 22.11185208 -3 22 C-3.30372936 13.99054432 -3.50848663 7.30934715 0 0 Z " fill="#F6F6F6" transform="translate(147,363)"/>
<path d="M0 0 C0.22134176 2.12368444 0.42670007 4.24904024 0.625 6.375 C0.74101562 7.55835938 0.85703125 8.74171875 0.9765625 9.9609375 C0.98429687 10.96382813 0.99203125 11.96671875 1 13 C-1 15 -1 15 -3.25 15.5 C-7.39022326 14.74723213 -9.5961276 12.36701332 -12 9 C-12.6875 6.375 -12.6875 6.375 -12 4 C-7.75859531 -0.01817287 -5.65195262 -1.33862036 0 0 Z " fill="#F5F5F5" transform="translate(272,363)"/>
<path d="M0 0 C0.495 0.99 0.495 0.99 1 2 C-10.54703329 17.05499276 -10.54703329 17.05499276 -17 23 C-19.16343011 25.03268602 -19.16343011 25.03268602 -21 28 C-23.60717156 28.80953272 -26.08811437 29.44666223 -28.75 30 C-29.88223999 30.2477417 -29.88223999 30.2477417 -31.03735352 30.50048828 C-32.59371515 30.8399571 -34.15110951 31.17472388 -35.70947266 31.50488281 C-37.87025825 31.97195521 -40.01890505 32.47417888 -42.16796875 32.9921875 C-43.41191406 33.28351563 -44.65585937 33.57484375 -45.9375 33.875 C-47.62166016 34.27332031 -47.62166016 34.27332031 -49.33984375 34.6796875 C-50.21769531 34.78539062 -51.09554688 34.89109375 -52 35 C-52.66 34.34 -53.32 33.68 -54 33 C-52.76507813 32.6596875 -51.53015625 32.319375 -50.2578125 31.96875 C-41.36018807 29.4512051 -32.63113831 26.70875387 -24.125 23.0625 C-23.39555176 22.7634375 -22.66610352 22.464375 -21.91455078 22.15625 C-15.36379431 19.23597806 -11.82571862 14.76624034 -7.9375 8.875 C-5.90229561 5.8550193 -3.63996025 3.49725969 -1 1 C-0.67 0.67 -0.34 0.34 0 0 Z " fill="#171717" transform="translate(350,209)"/>
<path d="M0 0 C1.60486115 2.87149263 2.30809623 5.17192174 2.59765625 8.44140625 C2.67693359 9.27220703 2.75621094 10.10300781 2.83789062 10.95898438 C2.91201172 11.81814453 2.98613281 12.67730469 3.0625 13.5625 C3.21701784 15.27241232 3.37444891 16.98206454 3.53515625 18.69140625 C3.63389038 19.82364624 3.63389038 19.82364624 3.73461914 20.97875977 C3.96116725 23.20023241 3.96116725 23.20023241 5 26 C6.16689898 35.22041487 3.29582614 44.16516905 1 53 C0.67 53 0.34 53 0 53 C0.00523682 52.23333008 0.01047363 51.46666016 0.01586914 50.67675781 C0.03666364 47.20118022 0.04966809 43.72561573 0.0625 40.25 C0.07087891 39.0434375 0.07925781 37.836875 0.08789062 36.59375 C0.09111328 35.43359375 0.09433594 34.2734375 0.09765625 33.078125 C0.10551147 31.47565918 0.10551147 31.47565918 0.11352539 29.84082031 C0.01431918 27.35831834 -0.33791486 25.37346419 -1 23 C-1.35529563 15.28799477 -0.96742516 7.65302403 0 0 Z " fill="#191919" transform="translate(410,160)"/>
<path d="M0 0 C2.27210017 1.34642973 2.71418165 2.55617038 3.6875 5 C3.8828125 7.578125 3.8828125 7.578125 3.8125 10.25 C3.79445312 11.14203125 3.77640625 12.0340625 3.7578125 12.953125 C3.72300781 13.96632813 3.72300781 13.96632813 3.6875 15 C-1.13162474 14.41586367 -4.39463476 12.7877118 -8.3125 10 C-9.25 6.75 -9.25 6.75 -9.3125 4 C-3.0094697 0 -3.0094697 0 0 0 Z " fill="#F5F5F5" transform="translate(227.3125,400)"/>
<path d="M0 0 C1.3988302 4.1964906 0.1808411 6.39681813 -1.52734375 10.36328125 C-5.41450276 17.32304871 -10.93679921 20.968531 -18.4375 23.3125 C-20.62096218 23.89047528 -22.8084639 24.45343618 -25 25 C-26.94051572 25.5732214 -28.87839053 26.15552159 -30.8125 26.75 C-32.20818801 27.16715317 -33.60396057 27.58402437 -35 28 C-31.70041242 24.11513854 -27.93751912 22.47414858 -23.3125 20.625 C-11.78150319 15.73180135 -5.3590223 11.81086483 0 0 Z " fill="#121212" transform="translate(249,251)"/>
<path d="M0 0 C2 3 2 3 3 5 C3.66 4.67 4.32 4.34 5 4 C7.19599193 9.21548084 7.68430858 14.404771 7 20 C6.34 20.66 5.68 21.32 5 22 C4.39688385 23.68761858 3.86149763 25.40014476 3.375 27.125 C3.11460937 28.03507812 2.85421875 28.94515625 2.5859375 29.8828125 C2.39257812 30.58148438 2.19921875 31.28015625 2 32 C1.67 32 1.34 32 1 32 C1 29.36 1 26.72 1 24 C0.34 24.66 -0.32 25.32 -1 26 C-0.67 21.05 -0.34 16.1 0 11 C0.66 11 1.32 11 2 11 C1.67 9.9275 1.34 8.855 1 7.75 C0 4 0 4 0 0 Z " fill="#171717" transform="translate(150,221)"/>
<path d="M0 0 C1.22589844 0.01353516 1.22589844 0.01353516 2.4765625 0.02734375 C3.41628906 0.04474609 3.41628906 0.04474609 4.375 0.0625 C5.31119813 3.21756142 5.4807123 6.02836502 5.4375 9.3125 C5.42847656 10.20453125 5.41945312 11.0965625 5.41015625 12.015625 C5.39855469 12.69109375 5.38695312 13.3665625 5.375 14.0625 C2.57894902 13.98026321 0.84669095 13.48115393 -1.2578125 11.61328125 C-4.23966422 8.29291013 -6.34500875 5.68235569 -6.625 1.0625 C-4.21954362 -0.14022819 -2.67503047 -0.03821472 0 0 Z " fill="#F7F7F7" transform="translate(182.625,412.9375)"/>
<path d="M0 0 C0.66 0 1.32 0 2 0 C6.18380148 4.9006522 7.77692424 9.64234082 8 16 C7 17 7 17 4 17.125 C1 17 1 17 0 16 C-0.07319621 13.30345146 -0.09242537 10.63308542 -0.0625 7.9375 C-0.05798828 7.17888672 -0.05347656 6.42027344 -0.04882812 5.63867188 C-0.0370068 3.75908129 -0.01907078 1.87953101 0 0 Z " fill="#F7F7F7" transform="translate(176,361)"/>
<path d="M0 0 C10.72916622 3.18025208 22.91005037 9.30665457 29 19 C30.4375 22 30.4375 22 31 24 C26.45767358 20.6811082 22.06344372 17.23727435 17.75 13.625 C12.79166038 9.52202612 7.655241 6.00030682 2.23828125 2.53125 C1.49964844 2.0259375 0.76101563 1.520625 0 1 C0 0.67 0 0.34 0 0 Z " fill="#151515" transform="translate(358,62)"/>
<path d="M0 0 C2.42645549 1.11990253 4.53420472 2.36423049 6.75 3.875 C10.37276634 6.24373184 14.0998434 8.13901157 18 10 C17.67 10.66 17.34 11.32 17 12 C15.91332031 11.67515625 15.91332031 11.67515625 14.8046875 11.34375 C7.51354027 9.03518566 7.51354027 9.03518566 0 9 C-2.37719693 10.87501931 -2.37719693 10.87501931 -4 13 C-3.50269348 8.02693484 -2.44697666 4.36200187 0 0 Z " fill="#0D0D0D" transform="translate(151,311)"/>
<path d="M0 0 C1 1 1 1 1.09765625 3.50390625 C1.08605469 4.51324219 1.07445312 5.52257812 1.0625 6.5625 C1.05347656 7.57441406 1.04445312 8.58632813 1.03515625 9.62890625 C1.02355469 10.41136719 1.01195312 11.19382812 1 12 C0.01 12.495 0.01 12.495 -1 13 C-7.70459519 7.9059081 -7.70459519 7.9059081 -8.9375 4.125 C-8.958125 3.42375 -8.97875 2.7225 -9 2 C-5.55892734 -0.29404844 -4.03160191 -0.26293056 0 0 Z " fill="#F5F5F5" transform="translate(200,411)"/>
<path d="M0 0 C1 3 1 3 -0.1171875 5.8203125 C-7.07395138 18.89902859 -15.2171619 26.57088675 -29 32 C-32.42578125 32.6875 -32.42578125 32.6875 -35 33 C-32.44245115 30.44245115 -29.78912594 29.4497829 -26.5 27.9375 C-13.68820763 21.70074181 -6.28786361 12.57572722 0 0 Z " fill="#141414" transform="translate(281,427)"/>
<path d="M0 0 C1.32229189 2.64458379 1.09677194 4.67761301 1.0625 7.625 C1.05347656 8.62789063 1.04445312 9.63078125 1.03515625 10.6640625 C1.02355469 11.43492187 1.01195312 12.20578125 1 13 C-2 13 -2 13 -3.60546875 11.64453125 C-7.91677455 6.65193268 -7.91677455 6.65193268 -8.375 3.0625 C-8.25125 2.381875 -8.1275 1.70125 -8 1 C-5.29120665 -0.35439668 -2.99066732 -0.06501451 0 0 Z " fill="#F2F2F2" transform="translate(213,407)"/>
<path d="M0 0 C13.70740722 -0.49215425 27.92492921 -0.29535527 40 7 C36.29584212 8.23471929 34.44460541 7.64842099 30.64453125 6.8203125 C29.38189453 6.55089844 28.11925781 6.28148437 26.81835938 6.00390625 C25.48296362 5.71143612 24.14767781 5.41846349 22.8125 5.125 C11.48030232 2.62177532 11.48030232 2.62177532 0 1 C0 0.67 0 0.34 0 0 Z " fill="#1B1B1B" transform="translate(298,44)"/>
<path d="M0 0 C0.66 0 1.32 0 2 0 C2.8466034 1.38782485 3.67675339 2.78569397 4.5 4.1875 C4.9640625 4.96480469 5.428125 5.74210937 5.90625 6.54296875 C7.11592349 9.26041384 7.28453624 11.0580985 7 14 C6 15 6 15 3.4375 15.0625 C2.633125 15.041875 1.82875 15.02125 1 15 C-0.87592203 11.81908874 -1.24719681 9.48656709 -1.1875 5.8125 C-1.18105469 4.93207031 -1.17460937 4.05164063 -1.16796875 3.14453125 C-1 1 -1 1 0 0 Z " fill="#EDEDED" transform="translate(131,371)"/>
<path d="M0 0 C4.21708244 1.50610087 5.94467452 4.11771853 8 8 C7.75 10.875 7.75 10.875 7 13 C4.69 13 2.38 13 0 13 C-1.57170996 9.85658007 -1.23175783 6.44228549 -1 3 C-0.67 2.01 -0.34 1.02 0 0 Z " fill="#EBEBEB" transform="translate(190,362)"/>
<path d="M0 0 C2.65514853 0.97846261 5.0060941 2.00381252 7.41015625 3.5078125 C16.9647501 9.33344115 26.13154712 8.57993721 37 8 C31.11170012 11.92553325 22.29708482 12.83702708 15.3046875 11.8125 C9.28002184 9.68855007 3.52478915 5.28718373 0 0 Z " fill="#191919" transform="translate(174,268)"/>
<path d="M0 0 C6.08312594 4.62808429 10.55279864 9.65839592 13 17 C13.88831261 24.12106337 11.99518333 29.59512137 9 36 C8.67 36 8.34 36 8 36 C8.0721875 35.39414063 8.144375 34.78828125 8.21875 34.1640625 C9.95824242 19.30599853 9.95824242 19.30599853 3.62109375 6.2421875 C2.4187987 4.8240959 1.20992902 3.41158385 0 2 C0 1.34 0 0.68 0 0 Z " fill="#151515" transform="translate(244,210)"/>
<path d="M0 0 C2.40243465 2.15344283 3.60244944 3.96874765 4.6875 7 C4.93886719 7.680625 5.19023437 8.36125 5.44921875 9.0625 C6 11 6 11 6 14 C6.66 14 7.32 14 8 14 C10.13729958 20.54547997 10.64774582 26.20304851 9 33 C8.67 33 8.34 33 8 33 C7.90203125 32.42894531 7.8040625 31.85789063 7.703125 31.26953125 C6.77264791 26.22409944 5.55500334 21.39129783 4 16.5 C2.26648326 11.04718427 0.96699669 5.63657284 0 0 Z " fill="#1F1F1F" transform="translate(410,115)"/>
<path d="M0 0 C0.56984619 0.2897168 1.13969238 0.57943359 1.72680664 0.87792969 C3.92041109 1.96071414 6.13367721 2.96453857 8.37109375 3.953125 C10.05990889 4.7187212 11.74871054 5.48434716 13.4375 6.25 C14.7069043 6.80494141 14.7069043 6.80494141 16.00195312 7.37109375 C22.42297228 10.31762251 26.04188886 13.26178783 29.375 19.625 C30.06521305 22.2478096 29.74204992 23.45121983 29 26 C28.8040625 25.40832031 28.608125 24.81664062 28.40625 24.20703125 C25.91800786 17.63249489 23.18339345 15.09684098 17 12 C4.81129299 5.5512231 4.81129299 5.5512231 0 1 C0 0.67 0 0.34 0 0 Z " fill="#191919" transform="translate(217,201)"/>
<path d="M0 0 C4.32640329 1.94549184 6.2875462 4.125066 9 8 C8.8125 10.375 8.8125 10.375 8 12 C6.02 12.33 4.04 12.66 2 13 C-0.20914 9.68629 -0.22481553 8.6553979 -0.125 4.8125 C-0.10695312 3.91144531 -0.08890625 3.01039063 -0.0703125 2.08203125 C-0.04710937 1.39496094 -0.02390625 0.70789063 0 0 Z " fill="#FAFAFA" transform="translate(203,358)"/>
<path d="M0 0 C1.65 0.33 3.3 0.66 5 1 C5 1.99 5 2.98 5 4 C1.24178472 7.57488771 -4.58404944 13 -10 13 C-10 10.69 -10 8.38 -10 6 C-6.42355152 4.7619986 -3.66305234 5.25073929 0 6 C0 4.02 0 2.04 0 0 Z " fill="#F7F7F7" transform="translate(241,344)"/>
<path d="M0 0 C3.82097239 0.53069061 6.06171403 1.49701566 9 4 C8.67 5.32 8.34 6.64 8 8 C6.5225254 8.36116046 5.04295325 8.71375048 3.5625 9.0625 C2.73878906 9.25972656 1.91507813 9.45695312 1.06640625 9.66015625 C0.38449219 9.77230469 -0.29742187 9.88445312 -1 10 C-2 9 -2 9 -2.1875 6.125 C-2 3 -2 3 0 0 Z " fill="#F7F7F7" transform="translate(218,356)"/>
<path d="M0 0 C3.63 0 7.26 0 11 0 C9.02 0.99 9.02 0.99 7 2 C10.3 2.33 13.6 2.66 17 3 C17 3.33 17 3.66 17 4 C-0.325 4.99 -0.325 4.99 -18 6 C-14.52934193 3.68622795 -11.32959845 3.11015527 -7.3125 2.375 C-6.61060547 2.2409375 -5.90871094 2.106875 -5.18554688 1.96875 C-3.45818294 1.6397283 -1.72923409 1.31904688 0 1 C0 0.67 0 0.34 0 0 Z " fill="#1F1F1F" transform="translate(260,39)"/>
<path d="M0 0 C0.66 0.33 1.32 0.66 2 1 C1.42070224 4.91025991 -0.3061755 7.16056336 -3 10 C-7.15173096 12.61739561 -10.11403288 13.34899765 -15 13 C-14 10 -14 10 -12.36328125 9.04296875 C-11.68652344 8.76066406 -11.00976562 8.47835938 -10.3125 8.1875 C-5.91551934 6.15142067 -3.24533232 3.56986556 0 0 Z " fill="#D4D4D4" transform="translate(268,390)"/>
<path d="M0 0 C0.53625 0.763125 1.0725 1.52625 1.625 2.3125 C4.22549017 5.25515992 6.47945081 6.35208336 10 8 C10.495 8.53625 10.99 9.0725 11.5 9.625 C13.7375647 11.67610097 16.0584698 11.67316331 19 12 C19.33 12.99 19.66 13.98 20 15 C15.53761627 15.44623837 13.62175689 15.47927094 10 12.6875 C9.52304687 12.23375 9.04609375 11.78 8.5546875 11.3125 C5.99016628 9.14747706 3.11864234 8.18508409 0 7 C0 4.69 0 2.38 0 0 Z " fill="#E3E3E3" transform="translate(272,229)"/>
<path d="M0 0 C-1.41478135 0.64995297 -2.83191487 1.29478722 -4.25 1.9375 C-5.03890625 2.29714844 -5.8278125 2.65679687 -6.640625 3.02734375 C-14.95153276 6.45352923 -23.51927705 5.29430186 -32 3 C-32 2.67 -32 2.34 -32 2 C-31.33468262 1.98018066 -30.66936523 1.96036133 -29.98388672 1.93994141 C-26.94721732 1.84423582 -23.91119322 1.73474192 -20.875 1.625 C-19.30492187 1.57859375 -19.30492187 1.57859375 -17.703125 1.53125 C-12.09206615 1.31817182 -4.97652324 -1.65884108 0 0 Z " fill="#212121" transform="translate(260,465)"/>
<path d="M0 0 C1.6396875 0.0928125 1.6396875 0.0928125 3.3125 0.1875 C3.3125 0.8475 3.3125 1.5075 3.3125 2.1875 C2.054375 2.579375 0.79625 2.97125 -0.5 3.375 C-3.70732562 4.55574996 -4.56677922 5.02528145 -6.6875 7.875 C-7.0175 8.638125 -7.3475 9.40125 -7.6875 10.1875 C-11.46389718 9.67717606 -13.13472581 8.97983071 -15.6875 6.1875 C-14.76517578 5.91486328 -14.76517578 5.91486328 -13.82421875 5.63671875 C-12.61185547 5.25966797 -12.61185547 5.25966797 -11.375 4.875 C-10.17423828 4.50955078 -10.17423828 4.50955078 -8.94921875 4.13671875 C-6.63069063 3.3354625 -6.63069063 3.3354625 -5.125 1.59375 C-3.6875 0.1875 -3.6875 0.1875 0 0 Z " fill="#EBEBEB" transform="translate(231.6875,341.8125)"/>
<path d="M0 0 C0 0.33 0 0.66 0 1 C-0.59167969 1.07476562 -1.18335938 1.14953125 -1.79296875 1.2265625 C-5.94394768 1.91726372 -9.09923593 2.48428652 -11.9375 5.75 C-15.28250085 11.02091044 -16.26137047 15.84475388 -17 22 C-17.66 22 -18.32 22 -19 22 C-19.57995227 11.13126492 -19.57995227 11.13126492 -16 6 C-10.93845545 0.91079674 -7.10644087 -0.13408379 0 0 Z " fill="#0D0D0D" transform="translate(168,180)"/>
<path d="M0 0 C0.99 0.66 1.98 1.32 3 2 C-0.27932505 10.15973233 -4.3182386 18.08921107 -11 24 C-11.33 23.34 -11.66 22.68 -12 22 C-10.64645803 19.71814384 -9.24975867 17.55744858 -7.75 15.375 C-4.4151892 10.38335118 -1.73800795 5.79335983 0 0 Z " fill="#E3E3E3" transform="translate(346,347)"/>
<path d="M0 0 C1 3 1 3 0.1015625 5.34765625 C-4.1362396 13.13938233 -9.4591549 22.42521189 -18 26 C-17.236875 25.01 -16.47375 24.02 -15.6875 23 C-12.40113819 18.62345086 -9.28930016 14.13305018 -6.1875 9.625 C-5.69531982 8.91085937 -5.20313965 8.19671875 -4.69604492 7.4609375 C-4.00152222 6.44773437 -4.00152222 6.44773437 -3.29296875 5.4140625 C-2.8755542 4.8051416 -2.45813965 4.1962207 -2.02807617 3.56884766 C-0.9355393 1.96790029 -0.9355393 1.96790029 0 0 Z " fill="#1E1E1E" transform="translate(270,276)"/>
<path d="M0 0 C9.6442548 0.20965771 9.6442548 0.20965771 13.6875 3.125 C16 6 16 6 16 9.6875 C15 13 15 13 13 15 C12.35232207 17.57061311 12.35232207 17.57061311 12 20 C11.34 19.34 10.68 18.68 10 18 C10.3125 16.3125 10.3125 16.3125 11 14 C11.73354255 9.51983959 11.73354255 9.51983959 12 5 C11.38511719 4.80664062 10.77023438 4.61328125 10.13671875 4.4140625 C8.92435547 4.02347656 8.92435547 4.02347656 7.6875 3.625 C6.88699219 3.36976563 6.08648437 3.11453125 5.26171875 2.8515625 C3 2 3 2 0 0 Z " fill="#1F1F1F" transform="translate(124,188)"/>
<path d="M0 0 C8.24430867 0.47912816 16.00044527 1.97785501 24 4 C24 4.33 24 4.66 24 5 C7.1070615 5.738041 7.1070615 5.738041 0 1 C0 0.67 0 0.34 0 0 Z " fill="#111111" transform="translate(178,181)"/>
<path d="M0 0 C0 0.33 0 0.66 0 1 C-1.19496094 0.85820312 -2.38992187 0.71640625 -3.62109375 0.5703125 C-13.94661649 -0.77002356 -13.94661649 -0.77002356 -23.375 2.75 C-24.61290379 3.79941639 -25.823559 4.88211489 -27 6 C-28.32379787 7.01258925 -29.65467396 8.01619329 -31 9 C-29.67915553 3.38641099 -25.56312373 1.00405646 -21 -2 C-15.28471243 -4.85764379 -5.90834549 -1.42943843 0 0 Z " fill="#484848" transform="translate(179,175)"/>
<path d="M0 0 C-3.42543778 2.15721762 -6.80150414 3.82345266 -10.5625 5.3125 C-16.09030008 7.55238925 -21.33971913 10.15738316 -26.6015625 12.9609375 C-27.39304688 13.30382812 -28.18453125 13.64671875 -29 14 C-29.66 13.67 -30.32 13.34 -31 13 C-5.57293869 -2.78646934 -5.57293869 -2.78646934 0 0 Z " fill="#222222" transform="translate(200,58)"/>
<path d="M0 0 C1.15242188 0.00902344 2.30484375 0.01804688 3.4921875 0.02734375 C4.36101562 0.03894531 5.22984375 0.05054688 6.125 0.0625 C6.125 0.3925 6.125 0.7225 6.125 1.0625 C5.18140625 1.14886719 4.2378125 1.23523438 3.265625 1.32421875 C-5.58624709 2.29294772 -12.7568851 4.23643981 -20.875 8.0625 C-22.53720883 8.74020498 -24.20256759 9.41043249 -25.875 10.0625 C-22.59191506 4.92375835 -18.5043579 2.92073465 -12.875 1.0625 C-8.53447941 0.14340069 -4.43042457 -0.04520841 0 0 Z " fill="#232323" transform="translate(309.875,137.9375)"/>
<path d="M0 0 C4.7603063 4.7603063 6.27719643 10.64825895 6.375 17.25 C6.32130293 21.30949873 5.68668391 24.30278886 4 28 C3.67 28 3.34 28 3 28 C3.03480469 27.02160156 3.06960937 26.04320312 3.10546875 25.03515625 C3.24564132 18.24679887 3.3661938 12.19287155 0.65625 5.83203125 C0 4 0 4 0 0 Z " fill="#1F1F1F" transform="translate(160,222)"/>
<path d="M0 0 C6.05072736 0.48085251 10.49361418 2.39911411 15.8125 5.25 C16.57498047 5.63285156 17.33746094 6.01570312 18.12304688 6.41015625 C23.63486335 9.32445002 23.63486335 9.32445002 25.51171875 12.796875 C25.67285156 13.52390625 25.83398438 14.2509375 26 15 C24.9171875 13.9171875 24.9171875 13.9171875 23.8125 12.8125 C19.77562394 9.40999018 15.05733622 7.9779671 10.1484375 6.203125 C6.47317505 4.79868228 3.32370644 3.08697846 0 1 C0 0.67 0 0.34 0 0 Z " fill="#212121" transform="translate(220,189)"/>
<path d="M0 0 C0.99 0.33 1.98 0.66 3 1 C-4.13393851 6.01900983 -10.33293302 8.13627168 -19 9 C-15.06107546 3.79499258 -10.91845317 2.9087225 -4.64453125 1.578125 C-2.03945401 1.12217483 -2.03945401 1.12217483 0 0 Z " fill="#161616" transform="translate(374,225)"/>
<path d="M0 0 C6.02744187 2.77774726 11.52503987 6.90258719 14.0625 13.1875 C14.94074149 16.7590154 15.0379337 17.72651681 14 21 C13.484375 19.865625 12.96875 18.73125 12.4375 17.5625 C9.93014632 12.52092814 6.52858043 8.35546355 3 4 C1.99414409 2.67107876 0.99226229 1.33910169 0 0 Z " fill="#232323" transform="translate(196,311)"/>
<path d="M0 0 C1.1446875 1.175625 1.1446875 1.175625 2.3125 2.375 C6.35041046 6.31900557 8.65279657 7.26792236 14.1875 7.625 C15.27417969 7.69976562 16.36085937 7.77453125 17.48046875 7.8515625 C18.72763672 7.92503906 18.72763672 7.92503906 20 8 C15.23589156 10.8090262 10.38188398 10.6543324 5 10 C2.375 8.375 2.375 8.375 1 6 C0.25 2.75 0.25 2.75 0 0 Z " fill="#2B2B2B" transform="translate(201,459)"/>
<path d="M0 0 C3.0124933 4.51873995 3.1824544 8.17493628 3.1875 13.4375 C3.20167969 14.75621094 3.21585937 16.07492187 3.23046875 17.43359375 C3.02228903 20.6550867 2.72168766 22.33920999 1 25 C-0.27861615 22.44276771 -0.11336609 20.63262898 -0.09765625 17.7734375 C-0.09443359 16.7421875 -0.09121094 15.7109375 -0.08789062 14.6484375 C-0.07951172 13.56820313 -0.07113281 12.48796875 -0.0625 11.375 C-0.05798828 10.28703125 -0.05347656 9.1990625 -0.04882812 8.078125 C-0.03701776 5.38536211 -0.02054778 2.69270812 0 0 Z " fill="#434343" transform="translate(291,332)"/>
<path d="M0 0 C0 3 0 3 -1.35546875 4.54296875 C-1.96003906 5.08566406 -2.56460938 5.62835938 -3.1875 6.1875 C-6.9142636 9.73247025 -9.48474674 13.53745389 -12 18 C-13 15 -13 15 -11.625 11.25 C-8.95358293 6.13452051 -4.67944832 3.19962278 0 0 Z " fill="#0E0E0E" transform="translate(159,162)"/>
<path d="M0 0 C0.66 0.33 1.32 0.66 2 1 C3.19211438 4.57634313 3.25926574 7.24064683 3 11 C2.0126546 12.67419438 1.01187895 14.34051852 0 16 C-0.54127718 18.67631494 -0.76875209 21.2712747 -1 24 C-1.33 24 -1.66 24 -2 24 C-2.0270043 22.54176788 -2.04639787 21.08339325 -2.0625 19.625 C-2.07410156 18.81289062 -2.08570313 18.00078125 -2.09765625 17.1640625 C-2 15 -2 15 -1 13 C-0.77049681 10.795636 -0.58924067 8.58607827 -0.4375 6.375 C-0.35371094 5.18648437 -0.26992187 3.99796875 -0.18359375 2.7734375 C-0.12300781 1.85820312 -0.06242188 0.94296875 0 0 Z " fill="#2E2E2E" transform="translate(168,235)"/>
<path d="M0 0 C13.21862872 10.67658473 13.21862872 10.67658473 15 18 C14.70885602 19.34317686 14.38087152 20.67946005 14 22 C13.525625 20.906875 13.05125 19.81375 12.5625 18.6875 C10.08514447 13.66098154 6.56656286 9.64270551 2.92578125 5.41796875 C1 3 1 3 0 0 Z " fill="#2B2B2B" transform="translate(251,54)"/>
<path d="M0 0 C0.33 0.66 0.66 1.32 1 2 C-3.49108302 7.52964597 -8.12125596 11.96886123 -14 16 C-14.66 15.67 -15.32 15.34 -16 15 C-8.20739762 7.00528402 -8.20739762 7.00528402 -4 4 C-3.34 4 -2.68 4 -2 4 C-1.34 2.68 -0.68 1.36 0 0 Z " fill="#121212" transform="translate(281,445)"/>
<path d="M0 0 C0.33 0 0.66 0 1 0 C1.10832169 2.08218362 1.18573541 4.16599129 1.25 6.25 C1.29640625 7.41015625 1.3428125 8.5703125 1.390625 9.765625 C1 13 1 13 -3 17 C-2.67 12.05 -2.34 7.1 -2 2 C-1.34 2 -0.68 2 0 2 C0 1.34 0 0.68 0 0 Z " fill="#858585" transform="translate(152,230)"/>
<path d="M0 0 C3.90030402 1.47942566 5.27192543 3.22965548 7 7 C7.35539181 10.1150328 7.28384354 13.18257022 7.1875 16.3125 C7.17396484 17.14845703 7.16042969 17.98441406 7.14648438 18.84570312 C7.11131217 20.89741498 7.05751048 22.94879275 7 25 C6.67 25 6.34 25 6 25 C5.97421875 24.0821875 5.9484375 23.164375 5.921875 22.21875 C5.57479443 14.70918849 4.89021908 9.44317535 1 3 C0.67 2.01 0.34 1.02 0 0 Z " fill="#EEEEEE" transform="translate(267,208)"/>
<path d="M0 0 C0.33 0 0.66 0 1 0 C2.91958262 8.39817396 3.22588024 16.40400201 3 25 C2.67 25 2.34 25 2 25 C0.30117812 16.58173087 -0.24911914 8.58077055 0 0 Z " fill="#3A3A3A" transform="translate(268,87)"/>
<path d="M0 0 C14.78132118 1.37357631 14.78132118 1.37357631 21 7 C19 8 19 8 16.171875 7.07421875 C15.04265625 6.61660156 13.9134375 6.15898437 12.75 5.6875 C8.53205928 3.99157683 4.32717322 2.39649681 0 1 C0 0.67 0 0.34 0 0 Z " fill="#333333" transform="translate(118,180)"/>
<path d="M0 0 C0 0.66 0 1.32 0 2 C-10.37357631 5.44419134 -10.37357631 5.44419134 -16 5 C-14 2 -14 2 -11.25 1.26953125 C-10.1775 1.11871094 -9.105 0.96789062 -8 0.8125 C-6.9275 0.65394531 -5.855 0.49539062 -4.75 0.33203125 C-2 0 -2 0 0 0 Z " fill="#F3F3F3" transform="translate(306,238)"/>
<path d="M0 0 C0.66 0.33 1.32 0.66 2 1 C1.50683684 5.93163163 0.70216003 9.79663996 -2 14 C-4.1875 14.875 -4.1875 14.875 -6 15 C-5.71382813 14.45859375 -5.42765625 13.9171875 -5.1328125 13.359375 C-3.8592283 10.70680653 -2.86453042 8.02068518 -1.875 5.25 C-1.34519531 3.77273438 -1.34519531 3.77273438 -0.8046875 2.265625 C-0.53914063 1.51796875 -0.27359375 0.7703125 0 0 Z " fill="#1E1E1E" transform="translate(324,369)"/>
<path d="M0 0 C0.33 0.99 0.66 1.98 1 3 C1.66 3 2.32 3 3 3 C2.39891424 8.65020618 0.92471317 13.66164461 -1 19 C-2.25127906 15.45332822 -1.72285053 13.27746562 -0.5625 9.75 C-0.27503906 8.85796875 0.01242187 7.9659375 0.30859375 7.046875 C0.53675781 6.37140625 0.76492188 5.6959375 1 5 C0.34 5 -0.32 5 -1 5 C-0.67 3.35 -0.34 1.7 0 0 Z " fill="#5A5A5A" transform="translate(294,397)"/>
<path d="M0 0 C5.71262133 4.19803585 8.93123191 8.63619521 12 15 C11.01 15.33 10.02 15.66 9 16 C8.443125 14.80375 7.88625 13.6075 7.3125 12.375 C5.87979429 9.47877771 4.3688144 7.06374934 2.25 4.625 C0 2 0 2 0 0 Z " fill="#1E1E1E" transform="translate(244,210)"/>
<path d="M0 0 C1.65 0.33 3.3 0.66 5 1 C5 1.99 5 2.98 5 4 C2.5 6.1875 2.5 6.1875 0 8 C-0.66 7.34 -1.32 6.68 -2 6 C-1.34 6 -0.68 6 0 6 C0 4.02 0 2.04 0 0 Z " fill="#F1F1F1" transform="translate(241,344)"/>
<path d="M0 0 C0.33 0.99 0.66 1.98 1 3 C-0.26034587 4.50882261 -1.53363649 6.00684044 -2.8125 7.5 C-3.52019531 8.3353125 -4.22789062 9.170625 -4.95703125 10.03125 C-7 12 -7 12 -10 12 C-10 11.34 -10 10.68 -10 10 C-8.57421875 8.6328125 -8.57421875 8.6328125 -6.6875 7.125 C-4.04871976 4.94560255 -1.88866642 2.88854864 0 0 Z " fill="#1C1C1C" transform="translate(394,212)"/>
<path d="M0 0 C0.66 0 1.32 0 2 0 C2.433125 0.9590625 2.433125 0.9590625 2.875 1.9375 C3.82823451 4.15206079 3.82823451 4.15206079 6 5 C6.625 7.5625 6.625 7.5625 7 10 C6.01 10.495 6.01 10.495 5 11 C4.67 10.01 4.34 9.02 4 8 C3.01 8.495 3.01 8.495 2 9 C0.50178941 5.62902617 0 3.79557881 0 0 Z " fill="#A1A1A1" transform="translate(342,325)"/>
<path d="M0 0 C0.66 0 1.32 0 2 0 C1.74462428 2.1060986 1.47014626 4.20988754 1.1875 6.3125 C1.03667969 7.48425781 0.88585937 8.65601563 0.73046875 9.86328125 C0.00135005 12.99420274 -0.49171464 14.09645193 -3 16 C-2.69262339 13.52009745 -2.37935917 11.04119265 -2.0625 8.5625 C-1.97548828 7.85544922 -1.88847656 7.14839844 -1.79882812 6.41992188 C-1.11328125 1.11328125 -1.11328125 1.11328125 0 0 Z " fill="#1B1B1B" transform="translate(267,129)"/>
<path d="M0 0 C3.63 0 7.26 0 11 0 C9.02 0.99 9.02 0.99 7 2 C10.3 2.33 13.6 2.66 17 3 C17 3.33 17 3.66 17 4 C14.91781638 4.10832169 12.83400871 4.18573541 10.75 4.25 C9.00976562 4.31960937 9.00976562 4.31960937 7.234375 4.390625 C3.42333987 3.93035506 2.34488245 2.94851556 0 0 Z " fill="#656565" transform="translate(260,39)"/>
<path d="M0 0 C0.33 0.99 0.66 1.98 1 3 C-0.5625 5.625 -0.5625 5.625 -3 8 C-6.25 8.8125 -6.25 8.8125 -9 9 C-6 6 -3 3 0 0 Z " fill="#0D0D0D" transform="translate(129,265)"/>
<path d="M0 0 C0 3.54538207 -0.8268882 4.70225088 -2.75 7.625 C-3.26046875 8.42164062 -3.7709375 9.21828125 -4.296875 10.0390625 C-6.18543998 12.21351117 -7.19099964 12.64582169 -10 13 C-9.52492969 8.72436721 -7.04697466 6.83439503 -4 4 C-3.236875 3.236875 -2.47375 2.47375 -1.6875 1.6875 C-1.130625 1.130625 -0.57375 0.57375 0 0 Z " fill="#2C2C2C" transform="translate(125,110)"/>
<path d="M0 0 C-2.82553984 4.23830976 -5.12180888 3.97715348 -10 5 C-9.67 3.68 -9.34 2.36 -9 1 C-2.25 -1.125 -2.25 -1.125 0 0 Z " fill="#E8E8E8" transform="translate(200,55)"/>
<path d="M0 0 C0 0.99 0 1.98 0 3 C-3.4320047 6.0922885 -6.90973508 7.90265492 -11.5 8.3125 C-12.7375 8.1578125 -12.7375 8.1578125 -14 8 C-11.33449905 6.22299936 -8.7462926 4.83966184 -5.875 3.4375 C-2.72017508 2.03461708 -2.72017508 2.03461708 0 0 Z " fill="#1B1B1B" transform="translate(267,395)"/>
<path d="M0 0 C0.96070434 2.88211302 1.10581883 4.69850044 1.0625 7.6875 C1.05347656 8.49574219 1.04445312 9.30398438 1.03515625 10.13671875 C1.02355469 10.75160156 1.01195312 11.36648438 1 12 C0.34 12 -0.32 12 -1 12 C-2.82438348 8.24391637 -3.30070333 6.01050192 -2 2 C-1.34 1.34 -0.68 0.68 0 0 Z " fill="#E5E5E5" transform="translate(174,396)"/>
<path d="M0 0 C0.33 0.99 0.66 1.98 1 3 C-0.25327281 5.46178587 -1.50767951 7.6960666 -3 10 C-3.515625 10.804375 -4.03125 11.60875 -4.5625 12.4375 C-5.2740625 13.2109375 -5.2740625 13.2109375 -6 14 C-6.99 14 -7.98 14 -9 14 C-9 13.34 -9 12.68 -9 12 C-8.2575 11.278125 -7.515 10.55625 -6.75 9.8125 C-3.69857402 6.69172343 -2.03053057 3.83544663 0 0 Z " fill="#292929" transform="translate(347,197)"/>
<path d="M0 0 C0.99 0 1.98 0 3 0 C2.01 3.3 1.02 6.6 0 10 C-1.32 10 -2.64 10 -4 10 C-4 9.34 -4 8.68 -4 8 C-3.34 8 -2.68 8 -2 8 C-1.34 5.36 -0.68 2.72 0 0 Z " fill="#E1E1E1" transform="translate(277,261)"/>
<path d="M0 0 C-1.4258086 3.45195767 -3.09746334 5.1014256 -6.125 7.25 C-7.21167969 8.03117188 -7.21167969 8.03117188 -8.3203125 8.828125 C-8.87460938 9.21484375 -9.42890625 9.6015625 -10 10 C-8.71596412 5.50587442 -5.23012555 0 0 0 Z " fill="#121212" transform="translate(158,174)"/>
<path d="M0 0 C5.28 0 10.56 0 16 0 C16 0.99 16 1.98 16 3 C10.72 2.34 5.44 1.68 0 1 C0 0.67 0 0.34 0 0 Z " fill="#272727" transform="translate(298,44)"/>
<path d="M0 0 C-2.42195448 2.87255066 -4.59742703 3.70838919 -8.1875 4.6875 C-9.08855469 4.93886719 -9.98960937 5.19023437 -10.91796875 5.44921875 C-11.60503906 5.63097656 -12.29210937 5.81273437 -13 6 C-12 3 -12 3 -9.78515625 1.796875 C-8.43744141 1.27867187 -8.43744141 1.27867187 -7.0625 0.75 C-6.16660156 0.39421875 -5.27070313 0.0384375 -4.34765625 -0.328125 C-2 -1 -2 -1 0 0 Z " fill="#E2E2E2" transform="translate(319,234)"/>
<path d="M0 0 C1.32 0 2.64 0 4 0 C4 0.66 4 1.32 4 2 C3.34 2 2.68 2 2 2 C1.67 2.99 1.34 3.98 1 5 C-0.62332967 6.38576923 -2.28724465 7.72641268 -4 9 C-2.25 2.25 -2.25 2.25 0 0 Z " fill="#BBBBBB" transform="translate(310,277)"/>
<path d="M0 0 C0.33 0.66 0.66 1.32 1 2 C-0.21705006 3.01471171 -1.44926884 4.0112461 -2.6875 5 C-3.71423828 5.8353125 -3.71423828 5.8353125 -4.76171875 6.6875 C-7.38783056 8.22741897 -9.00603356 8.25168194 -12 8 C-8.21087559 5.00027651 -4.11168168 2.52489191 0 0 Z " fill="#1D1D1D" transform="translate(331,213)"/>
<path d="M0 0 C1.23593891 3.70781672 0.5678132 4.67510253 -0.9375 8.1875 C-1.31777344 9.08855469 -1.69804687 9.98960937 -2.08984375 10.91796875 C-2.54037109 11.94857422 -2.54037109 11.94857422 -3 13 C-4.1484375 11.296875 -4.1484375 11.296875 -5 9 C-4.1015625 6.640625 -4.1015625 6.640625 -2.625 4.25 C-2.14289063 3.45078125 -1.66078125 2.6515625 -1.1640625 1.828125 C-0.77992188 1.22484375 -0.39578125 0.6215625 0 0 Z " fill="#505050" transform="translate(402,232)"/>
<path d="M0 0 C0.99 0.33 1.98 0.66 3 1 C0.36 2.98 -2.28 4.96 -5 7 C-5.33 6.34 -5.66 5.68 -6 5 C-2.25 1.125 -2.25 1.125 0 0 Z " fill="#1B1B1B" transform="translate(333,222)"/>
<path d="M0 0 C3.99500618 1.3697164 6.80009492 3.25722422 10 6 C9.67 6.99 9.34 7.98 9 9 C7 7.625 7 7.625 5 6 C5 5.34 5 4.68 5 4 C4.360625 3.71125 3.72125 3.4225 3.0625 3.125 C1 2 1 2 0 0 Z " fill="#B0B0B0" transform="translate(129,207)"/>
<path d="M0 0 C0 3 0 3 -2.125 5.625 C-5.25090158 8.20726652 -7.01781501 8.72217314 -11 9 C-10.484375 8.62875 -9.96875 8.2575 -9.4375 7.875 C-6.18438982 5.37260756 -3.09877473 2.68966683 0 0 Z " fill="#272727" transform="translate(244,166)"/>
<path d="M0 0 C0.99 0.33 1.98 0.66 3 1 C0.525 6.94 0.525 6.94 -2 13 C-3.18414294 9.44757118 -2.69535532 8.30169438 -1.5625 4.8125 C-1.27503906 3.91144531 -0.98757813 3.01039063 -0.69140625 2.08203125 C-0.46324219 1.39496094 -0.23507812 0.70789063 0 0 Z " fill="#363636" transform="translate(307,387)"/>
<path d="M0 0 C5.94 1.485 5.94 1.485 12 3 C11.67 3.66 11.34 4.32 11 5 C5.31495945 4.56268919 4.26826873 4.26826873 0 0 Z " fill="#242424" transform="translate(228,297)"/>
<path d="M0 0 C2.97 0 5.94 0 9 0 C9 1.65 9 3.3 9 5 C8.67 4.34 8.34 3.68 8 3 C6.10466658 2.53476937 6.10466658 2.53476937 3.9375 2.375 C2.638125 2.25125 1.33875 2.1275 0 2 C0 1.34 0 0.68 0 0 Z " fill="#323232" transform="translate(180,286)"/>
<path d="M0 0 C0 0.99 0 1.98 0 3 C-3.13068506 5.91722926 -6.03209924 8.32127275 -10 10 C-8.5741914 6.54804233 -6.90253666 4.8985744 -3.875 2.75 C-3.15054688 2.22921875 -2.42609375 1.7084375 -1.6796875 1.171875 C-1.12539062 0.78515625 -0.57109375 0.3984375 0 0 Z " fill="#2C2C2C" transform="translate(159,162)"/>
<path d="M0 0 C0.33 0.66 0.66 1.32 1 2 C-1.31 4.64 -3.62 7.28 -6 10 C-6.33 9.34 -6.66 8.68 -7 8 C-5.625 6 -5.625 6 -4 4 C-3.34 4 -2.68 4 -2 4 C-1.34 2.68 -0.68 1.36 0 0 Z " fill="#191919" transform="translate(281,445)"/>
<path d="M0 0 C0.66 0 1.32 0 2 0 C3.29243536 4.1196377 4.26252625 7.66831683 4 12 C2.09681116 9.14521674 1.5380901 7.58058692 0.875 4.3125 C0.70742188 3.50425781 0.53984375 2.69601562 0.3671875 1.86328125 C0.24601562 1.24839844 0.12484375 0.63351562 0 0 Z " fill="#2E2E2E" transform="translate(287,318)"/>
<path d="M0 0 C2.31 0 4.62 0 7 0 C7 0.66 7 1.32 7 2 C4.29120665 3.35439668 1.99066732 3.06501451 -1 3 C-0.67 2.01 -0.34 1.02 0 0 Z " fill="#C0C0C0" transform="translate(228,342)"/>
<path d="M0 0 C3.33333333 1.66666667 6.66666667 3.33333333 10 5 C9.67 5.99 9.34 6.98 9 8 C7.49712782 6.85793642 5.99776716 5.71125043 4.5 4.5625 C3.6646875 3.92441406 2.829375 3.28632813 1.96875 2.62890625 C1.3190625 2.09136719 0.669375 1.55382812 0 1 C0 0.67 0 0.34 0 0 Z " fill="#424242" transform="translate(217,201)"/>
<path d="M0 0 C0 3 0 3 -1.3125 4.60546875 C-1.869375 5.12753906 -2.42625 5.64960938 -3 6.1875 C-3.556875 6.71730469 -4.11375 7.24710937 -4.6875 7.79296875 C-5.120625 8.19128906 -5.55375 8.58960938 -6 9 C-6.66 8.67 -7.32 8.34 -8 8 C-7.04578192 6.85073734 -6.08647955 5.70569459 -5.125 4.5625 C-4.59132812 3.92441406 -4.05765625 3.28632813 -3.5078125 2.62890625 C-2 1 -2 1 0 0 Z " fill="#242424" transform="translate(260,293)"/>
<path d="M0 0 C0.33 0.66 0.66 1.32 1 2 C-0.98 4.31 -2.96 6.62 -5 9 C-5.33 8.34 -5.66 7.68 -6 7 C-4.02 4.69 -2.04 2.38 0 0 Z " fill="#101010" transform="translate(279,156)"/>
<path d="M0 0 C2.09749995 2.35968744 2.96905704 3.54616994 3.1875 6.75 C3.0946875 7.86375 3.0946875 7.86375 3 9 C2.34 9 1.68 9 1 9 C0.67 6.03 0.34 3.06 0 0 Z " fill="#F6F6F6" transform="translate(277,304)"/>
<path d="M0 0 C4 6 4 6 4 9 C3.01 8.67 2.02 8.34 1 8 C-0.35439668 5.29120665 -0.06501451 2.99066732 0 0 Z " fill="#DEDEDE" transform="translate(249,190)"/>
<path d="M0 0 C0 0.33 0 0.66 0 1 C-0.61488281 1.12117187 -1.22976562 1.24234375 -1.86328125 1.3671875 C-2.67152344 1.53476563 -3.47976562 1.70234375 -4.3125 1.875 C-5.11300781 2.03742188 -5.91351563 2.19984375 -6.73828125 2.3671875 C-9.25301118 2.94478999 -9.25301118 2.94478999 -12 5 C-12 4.01 -12 3.02 -12 2 C-7.8794254 0.00214565 -4.54805635 -0.17835515 0 0 Z " fill="#414141" transform="translate(168,180)"/>
<path d="M0 0 C4.31392226 0.4793247 6.16569547 1.7457985 9 5 C6.03 4.01 3.06 3.02 0 2 C0 1.34 0 0.68 0 0 Z " fill="#111111" transform="translate(127,174)"/>
<path d="M0 0 C0.99 0.33 1.98 0.66 3 1 C2.45773019 4.79588866 0.79872437 6.47211993 -2 9 C-1.34 6.03 -0.68 3.06 0 0 Z " fill="#D6D6D6" transform="translate(403,230)"/>
</svg>
