<?xml version="1.0" encoding="utf-8"?>
<svg fill="none" viewBox="0 0 16 16" xmlns="http://www.w3.org/2000/svg">
  <path fill="#E0DFDF" fill-rule="evenodd" d="M7.5 1a6.5 6.5 0 100 13 6.5 6.5 0 000-13zM0 7.5a7.5 7.5 0 1115 0 7.5 7.5 0 01-15 0z" clip-rule="evenodd"/>
  <path fill="#4CC2FF" d="M 5.747 10.416 C 6.041 10.571 6.328 10.69 6.612 10.771 C 6.895 10.851 7.205 10.892 7.541 10.892 C 7.766 10.892 7.996 10.868 8.233 10.821 C 8.47 10.775 8.698 10.706 8.92 10.617 C 9.141 10.526 9.352 10.417 9.552 10.289 C 9.75 10.161 9.929 10.013 10.084 9.846 C 10.203 9.72 10.261 9.576 10.261 9.416 C 10.261 9.253 10.203 9.113 10.084 8.995 C 9.965 8.875 9.825 8.818 9.662 8.818 C 9.539 8.818 9.417 8.861 9.299 8.952 C 9.18 9.042 9.043 9.144 8.887 9.257 C 8.732 9.369 8.547 9.469 8.336 9.56 C 8.124 9.65 7.866 9.696 7.56 9.696 C 7.341 9.696 7.139 9.672 6.953 9.626 C 6.766 9.577 6.576 9.502 6.382 9.396 L 6.624 9.396 C 6.731 9.396 6.839 9.392 6.947 9.382 C 7.057 9.372 7.155 9.348 7.242 9.308 C 7.33 9.267 7.401 9.206 7.458 9.124 C 7.514 9.045 7.541 8.936 7.541 8.798 C 7.541 8.637 7.483 8.496 7.364 8.377 C 7.246 8.259 7.104 8.2 6.942 8.2 L 5.148 8.2 C 4.987 8.2 4.845 8.259 4.727 8.377 C 4.609 8.496 4.55 8.637 4.55 8.798 L 4.55 10.593 C 4.55 10.755 4.609 10.895 4.727 11.014 C 4.845 11.133 4.987 11.19 5.148 11.19 C 5.266 11.19 5.364 11.17 5.438 11.125 C 5.513 11.082 5.573 11.025 5.621 10.953 C 5.667 10.881 5.7 10.799 5.719 10.705 C 5.736 10.613 5.747 10.515 5.747 10.416 Z" style=""/>
  <path fill="#4CC2FF" d="M 9.934 7.003 C 10.096 7.003 10.238 6.945 10.355 6.826 C 10.474 6.708 10.533 6.566 10.533 6.404 L 10.533 4.61 C 10.533 4.449 10.474 4.307 10.355 4.189 C 10.238 4.071 10.096 4.012 9.934 4.012 C 9.816 4.012 9.72 4.034 9.645 4.078 C 9.57 4.12 9.51 4.179 9.463 4.25 C 9.414 4.321 9.382 4.405 9.364 4.497 C 9.345 4.592 9.336 4.688 9.336 4.787 C 9.043 4.632 8.754 4.514 8.471 4.433 C 8.188 4.351 7.878 4.311 7.541 4.311 C 7.317 4.311 7.088 4.335 6.855 4.382 C 6.62 4.428 6.391 4.496 6.168 4.587 C 5.943 4.677 5.73 4.786 5.527 4.915 C 5.324 5.043 5.148 5.189 4.999 5.359 C 4.943 5.42 4.9 5.483 4.868 5.55 C 4.837 5.616 4.821 5.692 4.821 5.779 C 4.821 5.947 4.88 6.091 4.999 6.209 C 5.116 6.327 5.26 6.386 5.429 6.386 C 5.535 6.386 5.649 6.341 5.77 6.251 C 5.891 6.16 6.033 6.06 6.195 5.947 C 6.357 5.835 6.546 5.734 6.761 5.642 C 6.976 5.553 7.231 5.508 7.522 5.508 C 7.741 5.508 7.943 5.532 8.13 5.579 C 8.316 5.625 8.507 5.7 8.701 5.807 L 8.457 5.807 C 8.346 5.807 8.234 5.812 8.125 5.821 C 8.016 5.83 7.919 5.854 7.83 5.895 C 7.744 5.935 7.674 5.997 7.619 6.078 C 7.567 6.158 7.541 6.267 7.541 6.404 C 7.541 6.566 7.6 6.708 7.718 6.826 C 7.836 6.945 7.978 7.003 8.14 7.003 L 9.934 7.003 Z" style=""/>
</svg>