<?xml version="1.0" encoding="utf-8"?>
<svg version="1.1" viewBox="-10 0 2068 2048" xmlns="http://www.w3.org/2000/svg">
  <path fill="#E0DFDF" d="M 376 1920 C 326 1920 278.167 1909.833 232.5 1889.5 C 186.833 1869.167 146.833 1841.833 112.5 1807.5 C 78.167 1773.167 50.833 1733.167 30.5 1687.5 C 10.167 1641.833 0 1594 0 1544 L 0 504 C 0 454 10.167 406.167 30.5 360.5 C 50.833 314.833 78.167 274.833 112.5 240.5 C 146.833 206.167 186.833 178.833 232.5 158.5 C 278.167 138.167 326 128 376 128 L 1672 128 C 1722 128 1769.833 138.167 1815.5 158.5 C 1861.167 178.833 1901.167 206.167 1935.5 240.5 C 1969.833 274.833 1997.167 314.833 2017.5 360.5 C 2037.833 406.167 2048 454 2048 504 L 2048 1544 C 2048 1594 2037.833 1641.833 2017.5 1687.5 C 1997.167 1733.167 1969.833 1773.167 1935.5 1807.5 C 1901.167 1841.833 1861.167 1869.167 1815.5 1889.5 C 1769.833 1909.833 1722 1920 1672 1920 Z M 1669 1792 C 1702.333 1792 1734.167 1785.167 1764.5 1771.5 C 1794.833 1757.833 1821.5 1739.5 1844.5 1716.5 C 1867.5 1693.5 1885.833 1666.833 1899.5 1636.5 C 1913.167 1606.167 1920 1574.333 1920 1541 L 1920 507 C 1920 473.667 1913.167 441.833 1899.5 411.5 C 1885.833 381.167 1867.5 354.5 1844.5 331.5 C 1821.5 308.5 1794.833 290.167 1764.5 276.5 C 1734.167 262.833 1702.333 256 1669 256 L 379 256 C 345.667 256 313.833 262.833 283.5 276.5 C 253.167 290.167 226.5 308.5 203.5 331.5 C 180.5 354.5 162.167 381.167 148.5 411.5 C 134.833 441.833 128 473.667 128 507 L 128 1541 C 128 1574.333 134.833 1606.167 148.5 1636.5 C 162.167 1666.833 180.5 1693.5 203.5 1716.5 C 226.5 1739.5 253.167 1757.833 283.5 1771.5 C 313.833 1785.167 345.667 1792 379 1792 Z"/>
  <path fill="#4CC2FF" d="M 640 1310 L 640 738 C 640 716 644.1666666666666 695.1666666666666 652.5 675.5 C 660.8333333333334 655.8333333333334 672.1666666666666 638.8333333333334 686.5 624.5 C 700.8333333333334 610.1666666666666 717.8333333333334 598.6666666666666 737.5 590 C 757.1666666666666 581.3333333333334 778 577 800 577 C 826.6666666666666 577 852.3333333333334 583.6666666666666 877 597 L 1402 884 C 1427.3333333333333 898 1447.5 917.5 1462.5 942.5 C 1477.5 967.5 1485 994.6666666666666 1485 1024 C 1485 1053.3333333333333 1477.5 1080.5 1462.5 1105.5 C 1447.5 1130.5 1427.3333333333333 1150 1402 1164 L 877 1451 C 853.6666666666666 1463.6666666666667 828 1470 800 1470 C 778 1470 757.1666666666666 1465.8333333333333 737.5 1457.5 C 717.8333333333334 1449.1666666666667 700.8333333333334 1437.8333333333333 686.5 1423.5 C 672.1666666666666 1409.1666666666667 660.8333333333334 1392.1666666666667 652.5 1372.5 C 644.1666666666666 1352.8333333333333 640 1332 640 1310 Z"/>
  <path fill="#000" d="M 1357 1024 C 1357 1016.6666666666666 1355.5 1011.1666666666666 1352.5 1007.5 C 1349.5 1003.8333333333334 1345.3333333333333 1000 1340 996 C 1334.6666666666667 992 1322.8333333333333 984.8333333333334 1304.5 974.5 C 1286.1666666666667 964.1666666666666 1264.1666666666667 952 1238.5 938 C 1212.8333333333333 924 1184.3333333333333 908.5 1153 891.5 C 1121.6666666666667 874.5 1090 857.3333333333334 1058 840 C 1026 822.6666666666666 994.8333333333334 806 964.5 790 C 934.1666666666666 774 907.1666666666666 759.6666666666666 883.5 747 C 859.8333333333334 734.3333333333334 840.3333333333334 724.3333333333334 825 717 C 809.6666666666666 709.6666666666666 801.3333333333334 706 800 706 C 790.6666666666666 706 783 709 777 715 C 771 721 768 728.6666666666666 768 738 L 768 1310 C 768 1319.3333333333333 771 1327 777 1333 C 783 1339 790.6666666666666 1342 800 1342 C 801.3333333333334 1342 809.6666666666666 1338.3333333333333 825 1331 C 840.3333333333334 1323.6666666666667 859.8333333333334 1313.6666666666667 883.5 1301 C 907.1666666666666 1288.3333333333333 934.1666666666666 1274 964.5 1258 C 994.8333333333334 1242 1026 1225.3333333333333 1058 1208 C 1090 1190.6666666666667 1121.6666666666667 1173.5 1153 1156.5 C 1184.3333333333333 1139.5 1212.8333333333333 1124 1238.5 1110 C 1264.1666666666667 1096 1286.1666666666667 1083.8333333333333 1304.5 1073.5 C 1322.8333333333333 1063.1666666666667 1334.6666666666667 1056 1340 1052 C 1345.3333333333333 1048 1349.5 1044.1666666666667 1352.5 1040.5 C 1355.5 1036.8333333333333 1357 1031.3333333333333 1357 1024 Z"/>
</svg>