<?xml version="1.0" encoding="utf-8"?>
<svg fill="none" viewBox="0 0 16 16" xmlns="http://www.w3.org/2000/svg">
  <path fill="#E0DFDF" d="M 8 5.65 C 7.926 5.65 7.853 5.653 7.781 5.659 L 6.936 4.814 C 7.822 4.528 8.831 4.589 9.75 5.119 C 10.833 5.744 11.5 6.9 11.5 8.15 C 11.5 8.527 11.443 8.884 11.338 9.216 L 10.493 8.371 C 10.538 7.886 10.44 7.376 10.165 6.9 C 9.718 6.126 8.893 5.65 8 5.65 Z M 5.835 9.4 C 6.282 10.174 7.107 10.65 8 10.65 C 8.167 10.65 8.328 10.634 8.483 10.605 L 9.284 11.406 C 8.348 11.779 7.246 11.756 6.25 11.181 C 5.167 10.556 4.5 9.4 4.5 8.15 C 4.5 7.688 4.586 7.255 4.74 6.862 L 5.545 7.667 C 5.432 8.228 5.51 8.838 5.835 9.4 Z"/>
  <path fill="#E0DFDF" d="M 8 2.65 C 7.059 2.65 6.158 2.85 5.335 3.213 L 4.583 2.461 C 5.618 1.942 6.775 1.65 8 1.65 C 11.751 1.65 14.87 4.383 15.75 8.033 C 15.832 8.409 15.476 8.733 15.11 8.616 C 14.947 8.564 14.822 8.432 14.778 8.267 C 13.993 5.016 11.238 2.65 8 2.65 Z M 1.22 8.278 C 1.13 8.653 0.668 8.789 0.389 8.524 C 0.259 8.401 0.205 8.218 0.247 8.044 C 0.587 6.626 1.266 5.346 2.188 4.31 L 2.895 5.017 C 2.104 5.92 1.518 7.034 1.22 8.278 Z"/>
  <path fill="#4CC2FF" d="M.146.146a.5.5 0 01.708 0l15 15a.5.5 0 01-.708.708l-15-15a.5.5 0 010-.708z"/>
</svg>