<?xml version="1.0" encoding="utf-8"?>
<svg version="1.1" viewBox="-10 0 2058 2048" xmlns="http://www.w3.org/2000/svg">
  <path fill="#E0DFDF" d="M 0 960 C 0 871.333 11.333 786.167 34 704.5 C 56.667 622.833 88.833 546.333 130.5 475 C 172.167 403.667 222.167 338.833 280.5 280.5 C 338.833 222.167 403.667 172.167 475 130.5 C 546.333 88.833 622.833 56.667 704.5 34 C 786.167 11.333 871.333 0 960 0 C 1048.667 0 1133.833 11.333 1215.5 34 C 1297.167 56.667 1373.667 88.833 1445 130.5 C 1516.333 172.167 1581.167 222.167 1639.5 280.5 C 1697.833 338.833 1747.833 403.667 1789.5 475 C 1831.167 546.333 1863.333 622.833 1886 704.5 C 1908.667 786.167 1920 871.333 1920 960 C 1920 1048.667 1908.5 1133.833 1885.5 1215.5 C 1862.5 1297.167 1830.167 1373.5 1788.5 1444.5 C 1746.833 1515.5 1696.833 1580.167 1638.5 1638.5 C 1580.167 1696.833 1515.5 1746.833 1444.5 1788.5 C 1373.5 1830.167 1297 1862.5 1215 1885.5 C 1133 1908.5 1048 1920 960 1920 C 871.333 1920 786 1908.667 704 1886 C 622 1863.333 545.5 1831.167 474.5 1789.5 C 403.5 1747.833 338.833 1697.833 280.5 1639.5 C 222.167 1581.167 172.167 1516.5 130.5 1445.5 C 88.833 1374.5 56.667 1298 34 1216 C 11.333 1134 0 1048.667 0 960 Z M 1792 960 C 1792 883.333 1782.167 809.5 1762.5 738.5 C 1742.833 667.5 1714.833 601.167 1678.5 539.5 C 1642.167 477.833 1598.833 421.833 1548.5 371.5 C 1498.167 321.167 1442.167 277.833 1380.5 241.5 C 1318.833 205.167 1252.5 177.167 1181.5 157.5 C 1110.5 137.833 1036.667 128 960 128 C 883.333 128 809.5 137.833 738.5 157.5 C 667.5 177.167 601.167 205.167 539.5 241.5 C 477.833 277.833 421.833 321.167 371.5 371.5 C 321.167 421.833 277.833 477.833 241.5 539.5 C 205.167 601.167 177.167 667.5 157.5 738.5 C 137.833 809.5 128 883.333 128 960 C 128 1036.667 137.833 1110.5 157.5 1181.5 C 177.167 1252.5 205 1318.833 241 1380.5 C 277 1442.167 320.333 1498.333 371 1549 C 421.667 1599.667 477.833 1643 539.5 1679 C 601.167 1715 667.5 1742.833 738.5 1762.5 C 809.5 1782.167 883.333 1792 960 1792 C 1036.667 1792 1110.5 1782.167 1181.5 1762.5 C 1252.5 1742.833 1318.833 1715 1380.5 1679 C 1442.167 1643 1498.333 1599.667 1549 1549 C 1599.667 1498.333 1643 1442.167 1679 1380.5 C 1715 1318.833 1742.833 1252.5 1762.5 1181.5 C 1782.167 1110.5 1792 1036.667 1792 960 Z"/>
  <path fill="#4CC2FF" d="M 896 1344 L 896 832 C 896 814.6666666666666 902.3333333333334 799.6666666666666 915 787 C 927.6666666666666 774.3333333333334 942.6666666666666 768 960 768 C 977.3333333333334 768 992.3333333333334 774.3333333333334 1005 787 C 1017.6666666666666 799.6666666666666 1024 814.6666666666666 1024 832 L 1024 1344 C 1024 1361.3333333333333 1017.6666666666666 1376.3333333333333 1005 1389 C 992.3333333333334 1401.6666666666667 977.3333333333334 1408 960 1408 C 942.6666666666666 1408 927.6666666666666 1401.6666666666667 915 1389 C 902.3333333333334 1376.3333333333333 896 1361.3333333333333 896 1344 Z"/>
  <path fill="#4CC2FF" d="M 864 576 C 864 549.3333333333334 873.3333333333334 526.6666666666666 892 508 C 910.6666666666666 489.3333333333333 933.3333333333334 480 960 480 C 986.6666666666666 480 1009.3333333333334 489.3333333333333 1028 508 C 1046.6666666666667 526.6666666666666 1056 549.3333333333334 1056 576 C 1056 602.6666666666666 1046.6666666666667 625.3333333333334 1028 644 C 1009.3333333333334 662.6666666666666 986.6666666666666 672 960 672 C 933.3333333333334 672 910.6666666666666 662.6666666666666 892 644 C 873.3333333333334 625.3333333333334 864 602.6666666666666 864 576 Z"/>
</svg>