<?xml version="1.0" encoding="utf-8"?>
<svg fill="none" viewBox="0 0 16 16" xmlns="http://www.w3.org/2000/svg">
  <g clip-path="url(#clip0_3782_40308)">
    <path fill="#000" d="M1.5 4v8A2.5 2.5 0 004 14.5h4.13c-.77-1.155-.992-2.493-1.125-3.816L7 8.083a1.41 1.41 0 011.4-1.416 3.529 3.529 0 002.597-1.237 1.388 1.388 0 012.009 0A3.516 3.516 0 0014.5 6.464V4A2.5 2.5 0 0012 1.5H4A2.5 2.5 0 001.5 4z"/>
    <path fill="#E0DFDF" d="M2 12V5h12v1.239a3.485 3.485 0 001 .362V4a3 3 0 00-3-3H4a3 3 0 00-3 3v8a3 3 0 003 3h4.51a5.212 5.212 0 01-.675-1H4a2 2 0 01-2-2zM4 2h8a2 2 0 012 2H2a2 2 0 012-2z"/>
    <path fill="#4CC2FF" d="M15.6 7.667a.405.405 0 01.392.333L16 10.585a5.29 5.29 0 01-3.873 5.394.385.385 0 01-.253 0C8.815 14.917 8.248 13.056 8 10.585V8.082a.409.409 0 01.4-.416 4.497 4.497 0 003.318-1.545.388.388 0 01.566 0A4.502 4.502 0 0015.6 7.667z"/>
  </g>
  <defs>
    <clipPath id="clip0_3782_40308">
      <path fill="#fff" d="M0 0h16v16H0z"/>
    </clipPath>
  </defs>
  <path fill="#E0DFDF" d="M 3.942 9.344 C 3.942 9.536 3.952 9.734 3.97 9.938 C 3.988 10.141 4.035 10.327 4.11 10.496 C 4.186 10.665 4.295 10.803 4.438 10.91 C 4.582 11.017 4.778 11.07 5.028 11.07 C 5.174 11.07 5.293 11.051 5.384 11.012 C 5.475 10.973 5.552 10.924 5.614 10.867 C 5.677 10.81 5.73 10.746 5.774 10.676 C 5.819 10.605 5.863 10.542 5.907 10.484 C 5.952 10.427 6.002 10.379 6.06 10.34 C 6.117 10.301 6.192 10.281 6.286 10.281 C 6.416 10.281 6.526 10.327 6.614 10.418 C 6.703 10.509 6.747 10.62 6.747 10.75 C 6.747 10.813 6.734 10.878 6.708 10.945 C 6.557 11.294 6.33 11.557 6.028 11.734 C 5.726 11.911 5.388 12 5.013 12 C 4.596 12 4.23 11.893 3.915 11.68 C 3.6 11.466 3.367 11.167 3.216 10.781 C 3.112 10.521 3.05 10.266 3.032 10.016 C 3.014 9.766 3.005 9.505 3.005 9.234 C 3.005 9.073 3.024 8.905 3.063 8.73 C 3.103 8.556 3.151 8.393 3.208 8.242 C 3.349 7.857 3.562 7.553 3.849 7.332 C 4.135 7.111 4.487 7 4.903 7 C 5.362 7 5.746 7.102 6.056 7.305 C 6.366 7.508 6.588 7.833 6.724 8.281 C 6.739 8.328 6.747 8.38 6.747 8.438 C 6.747 8.563 6.703 8.672 6.614 8.766 C 6.526 8.859 6.416 8.906 6.286 8.906 C 6.151 8.906 6.049 8.87 5.981 8.797 C 5.914 8.724 5.856 8.638 5.81 8.539 C 5.763 8.44 5.712 8.34 5.657 8.238 C 5.603 8.137 5.523 8.06 5.419 8.008 C 5.351 7.977 5.278 7.957 5.2 7.949 C 5.122 7.941 5.044 7.938 4.966 7.938 L 4.88 7.938 C 4.703 7.938 4.554 7.983 4.435 8.074 C 4.315 8.165 4.218 8.281 4.146 8.422 C 4.073 8.563 4.021 8.715 3.989 8.879 C 3.958 9.043 3.942 9.198 3.942 9.344 Z"/>
</svg>