<?xml version="1.0" encoding="utf-8"?>
<svg version="1.1" viewBox="0 0 16 16" xmlns="http://www.w3.org/2000/svg">
  <path fill="#E0DFDF" d="M 12.067 1 C 12.458 1 12.832 1.079 13.188 1.238 C 13.545 1.397 13.858 1.611 14.126 1.879 C 14.394 2.147 14.608 2.46 14.767 2.816 C 14.925 3.173 15.005 3.547 15.005 3.938 L 15.005 12.063 C 15.005 12.453 14.925 12.827 14.767 13.184 C 14.608 13.54 14.394 13.853 14.126 14.121 C 13.858 14.389 13.545 14.603 13.188 14.762 C 12.832 14.921 12.458 15 12.067 15 L 3.942 15 C 3.552 15 3.178 14.921 2.821 14.762 C 2.465 14.603 2.152 14.389 1.884 14.121 C 1.616 13.853 1.402 13.54 1.243 13.184 C 1.084 12.827 1.005 12.453 1.005 12.063 L 1.005 3.938 C 1.005 3.547 1.084 3.173 1.243 2.816 C 1.402 2.46 1.616 2.147 1.884 1.879 C 2.152 1.611 2.465 1.397 2.821 1.238 C 3.178 1.079 3.552 1 3.942 1 Z M 3.966 2 C 3.705 2 3.457 2.053 3.22 2.16 C 2.983 2.267 2.774 2.41 2.595 2.59 C 2.415 2.77 2.272 2.977 2.165 3.211 C 2.058 3.445 2.005 3.693 2.005 3.953 L 2.005 3.992 L 14.005 3.992 L 14.005 3.953 C 14.005 3.693 13.952 3.445 13.845 3.211 C 13.738 2.977 13.595 2.77 13.415 2.59 C 13.235 2.41 13.027 2.267 12.79 2.16 C 12.553 2.053 12.304 2 12.044 2 Z M 12.044 14 C 12.304 14 12.553 13.947 12.79 13.84 C 13.027 13.733 13.235 13.59 13.415 13.41 C 13.595 13.23 13.738 13.022 13.845 12.785 C 13.952 12.548 14.005 12.299 14.005 12.039 L 14.005 5.008 L 2.005 5.008 L 2.005 12.039 C 2.005 12.299 2.058 12.548 2.165 12.785 C 2.272 13.022 2.415 13.23 2.595 13.41 C 2.774 13.59 2.983 13.733 3.22 13.84 C 3.457 13.947 3.705 14 3.966 14 Z"/>
  <path fill="#4CC2FF" d="M 4.619 9.175 C 4.619 9.061 4.691 8.922 4.756 8.839 C 4.857 8.756 5.009 8.685 5.108 8.685 C 5.212 8.685 5.357 8.752 5.453 8.829 L 7.116 10.487 L 10.796 6.808 C 10.869 6.75 11.007 6.677 11.127 6.677 C 11.24 6.677 11.38 6.749 11.463 6.814 C 11.546 6.915 11.616 7.067 11.616 7.167 C 11.616 7.271 11.549 7.416 11.472 7.512 L 7.448 11.541 C 7.359 11.606 7.221 11.667 7.117 11.667 C 7.017 11.667 6.866 11.601 6.771 11.528 L 4.751 9.506 C 4.692 9.432 4.619 9.294 4.619 9.175 Z" style=""/>
</svg>