<?xml version="1.0" encoding="utf-8"?>
<svg fill="none" viewBox="0 0 16 16" xmlns="http://www.w3.org/2000/svg">
  <path fill="#E0DFDF" d="M 14.005 6.125 L 14.005 14.039 C 14.005 14.299 13.952 14.548 13.845 14.785 C 13.738 15.022 13.595 15.23 13.415 15.41 C 13.235 15.59 13.027 15.733 12.79 15.84 C 12.553 15.947 12.304 16 12.044 16 L 8.083 16 C 8.265 15.854 8.44 15.698 8.606 15.531 C 8.773 15.365 8.927 15.188 9.067 15 L 12.005 15 C 12.146 15 12.276 14.974 12.396 14.922 C 12.515 14.87 12.621 14.798 12.712 14.707 C 12.803 14.616 12.875 14.51 12.927 14.391 C 12.979 14.271 13.005 14.141 13.005 14 L 13.005 6.063 C 13.005 6.063 13.002 6.042 12.997 6 L 9.966 6 C 9.695 6 9.441 5.945 9.204 5.836 C 8.967 5.727 8.76 5.581 8.583 5.398 C 8.406 5.216 8.265 5.004 8.161 4.762 C 8.057 4.52 8.005 4.266 8.005 4 L 8.005 1.008 C 7.984 1.003 7.963 1 7.942 1 L 4.005 1 C 3.864 1 3.734 1.026 3.614 1.078 C 3.494 1.13 3.389 1.202 3.298 1.293 C 3.207 1.384 3.135 1.49 3.083 1.609 C 3.031 1.729 3.005 1.859 3.005 2 L 3.005 5.945 C 2.656 6.039 2.323 6.164 2.005 6.32 L 2.005 1.961 C 2.005 1.701 2.058 1.452 2.165 1.215 C 2.272 0.978 2.415 0.77 2.595 0.59 C 2.774 0.41 2.983 0.267 3.22 0.16 C 3.457 0.053 3.705 0 3.966 0 L 7.88 0 C 8.146 0 8.401 0.051 8.646 0.152 C 8.89 0.254 9.106 0.398 9.294 0.586 L 13.419 4.711 C 13.606 4.898 13.751 5.115 13.853 5.359 C 13.954 5.604 14.005 5.859 14.005 6.125 Z M 9.005 4 C 9.005 4.141 9.031 4.272 9.083 4.395 C 9.135 4.517 9.205 4.622 9.294 4.711 C 9.382 4.799 9.488 4.87 9.61 4.922 C 9.733 4.974 9.864 5 10.005 5 L 12.302 5 L 9.005 1.703 Z"/>
  <path fill="#4CC2FF" d="M 9.005 11.5 C 9.005 12.12 8.886 12.703 8.649 13.25 C 8.412 13.797 8.091 14.273 7.685 14.68 C 7.278 15.086 6.802 15.408 6.255 15.645 C 5.708 15.882 5.125 16 4.505 16 C 3.88 16 3.294 15.883 2.747 15.648 C 2.2 15.414 1.724 15.094 1.317 14.688 C 0.911 14.281 0.591 13.805 0.356 13.258 C 0.122 12.711 0.005 12.125 0.005 11.5 C 0.005 10.88 0.123 10.297 0.36 9.75 C 0.597 9.203 0.919 8.727 1.325 8.32 C 1.731 7.914 2.208 7.592 2.755 7.355 C 3.302 7.118 3.885 7 4.505 7 C 4.916 7 5.313 7.053 5.696 7.16 C 6.079 7.267 6.437 7.418 6.771 7.613 C 7.104 7.809 7.409 8.044 7.685 8.32 C 7.961 8.596 8.196 8.901 8.392 9.234 C 8.587 9.568 8.738 9.926 8.845 10.309 C 8.952 10.691 9.005 11.089 9.005 11.5 Z"/>
  <path fill="#000" d="M 7.005 9.5 C 7.005 9.365 6.955 9.247 6.856 9.148 C 6.757 9.049 6.64 9 6.505 9 L 3.505 9 C 3.369 9 3.252 9.049 3.153 9.148 C 3.054 9.247 3.005 9.365 3.005 9.5 C 3.005 9.635 3.054 9.753 3.153 9.852 C 3.252 9.951 3.369 10 3.505 10 L 5.239 10 L 2.622 12.617 C 2.518 12.721 2.466 12.849 2.466 13 C 2.466 13.151 2.518 13.279 2.622 13.383 C 2.726 13.487 2.854 13.539 3.005 13.539 C 3.156 13.539 3.284 13.487 3.388 13.383 L 6.005 10.766 L 6.005 12.5 C 6.005 12.635 6.054 12.753 6.153 12.852 C 6.252 12.951 6.369 13 6.505 13 C 6.64 13 6.757 12.951 6.856 12.852 C 6.955 12.753 7.005 12.635 7.005 12.5 L 7.005 9.5 Z"/>
</svg>