<?xml version="1.0" encoding="utf-8"?>
<svg version="1.1" viewBox="0 0 16 16" xmlns="http://www.w3.org/2000/svg">
  <path fill="#E0DFDF" d="M 6.005 14 L 6.005 14.336 C 6.005 14.445 6.007 14.556 6.013 14.668 C 6.018 14.78 6.031 14.891 6.052 15 L 3.942 15 C 3.552 15 3.178 14.921 2.821 14.762 C 2.465 14.603 2.152 14.389 1.884 14.121 C 1.616 13.853 1.402 13.54 1.243 13.184 C 1.084 12.827 1.005 12.453 1.005 12.063 L 1.005 3.938 C 1.005 3.547 1.084 3.173 1.243 2.816 C 1.402 2.46 1.616 2.147 1.884 1.879 C 2.152 1.611 2.465 1.397 2.821 1.238 C 3.178 1.079 3.552 1 3.942 1 L 12.067 1 C 12.458 1 12.832 1.079 13.188 1.238 C 13.545 1.397 13.858 1.611 14.126 1.879 C 14.394 2.147 14.608 2.46 14.767 2.816 C 14.925 3.173 15.005 3.547 15.005 3.938 L 15.005 8.055 L 14.958 8.039 C 14.901 7.732 14.79 7.445 14.626 7.18 C 14.462 6.914 14.255 6.688 14.005 6.5 L 14.005 5 L 2.005 5 L 2.005 12.039 C 2.005 12.31 2.06 12.564 2.169 12.801 C 2.278 13.038 2.424 13.245 2.606 13.422 C 2.789 13.599 3.001 13.74 3.243 13.844 C 3.485 13.948 3.739 14 4.005 14 Z M 3.966 2 C 3.7 2 3.448 2.055 3.208 2.164 C 2.968 2.273 2.76 2.419 2.583 2.602 C 2.406 2.784 2.265 2.996 2.161 3.238 C 2.057 3.48 2.005 3.734 2.005 4 L 14.005 4 L 14.005 3.961 C 14.005 3.701 13.952 3.452 13.845 3.215 C 13.738 2.978 13.595 2.77 13.415 2.59 C 13.235 2.41 13.027 2.267 12.79 2.16 C 12.553 2.053 12.304 2 12.044 2 Z"/>
  <path fill="#4CC2FF" d="M 14.005 13 L 16.005 13 L 16.005 14.5 C 16.005 14.703 15.966 14.896 15.888 15.078 C 15.81 15.26 15.702 15.421 15.563 15.559 C 15.425 15.697 15.265 15.805 15.083 15.883 C 14.901 15.961 14.708 16 14.505 16 L 8.505 16 C 8.297 16 8.101 15.961 7.919 15.883 C 7.737 15.805 7.578 15.698 7.442 15.563 C 7.307 15.427 7.2 15.268 7.122 15.086 C 7.044 14.904 7.005 14.708 7.005 14.5 L 7.005 13 L 9.005 13 L 9.005 13.273 C 9.005 13.362 9.01 13.451 9.021 13.539 C 9.031 13.628 9.053 13.706 9.087 13.773 C 9.121 13.841 9.172 13.896 9.239 13.938 C 9.307 13.979 9.396 14 9.505 14 C 9.619 14 9.709 13.978 9.774 13.934 C 9.84 13.889 9.889 13.832 9.923 13.762 C 9.957 13.691 9.979 13.612 9.989 13.523 C 10 13.435 10.005 13.346 10.005 13.258 L 10.005 13 L 13.005 13 L 13.005 13.273 C 13.005 13.362 13.01 13.451 13.021 13.539 C 13.031 13.628 13.053 13.706 13.087 13.773 C 13.121 13.841 13.172 13.896 13.239 13.938 C 13.307 13.979 13.396 14 13.505 14 C 13.619 14 13.709 13.978 13.774 13.934 C 13.84 13.889 13.889 13.832 13.923 13.762 C 13.957 13.691 13.979 13.612 13.989 13.523 C 14 13.435 14.005 13.346 14.005 13.258 L 14.005 13 Z"/>
  <path fill="#4CC2FF" d="M 16.005 10.5 L 16.005 12 L 14.005 12 L 14.005 11.734 C 14.005 11.646 14 11.557 13.989 11.469 C 13.979 11.38 13.957 11.301 13.923 11.23 C 13.889 11.16 13.838 11.104 13.771 11.063 C 13.703 11.021 13.614 11 13.505 11 C 13.39 11 13.299 11.022 13.231 11.066 C 13.164 11.111 13.113 11.168 13.079 11.238 C 13.045 11.309 13.024 11.389 13.017 11.48 C 13.009 11.572 13.005 11.661 13.005 11.75 L 13.005 12 L 10.005 12 L 10.005 11.734 C 10.005 11.646 10 11.557 9.989 11.469 C 9.979 11.38 9.957 11.301 9.923 11.23 C 9.889 11.16 9.838 11.104 9.771 11.063 C 9.703 11.021 9.614 11 9.505 11 C 9.39 11 9.299 11.022 9.231 11.066 C 9.164 11.111 9.113 11.168 9.079 11.238 C 9.045 11.309 9.024 11.389 9.017 11.48 C 9.009 11.572 9.005 11.661 9.005 11.75 L 9.005 12 L 7.005 12 L 7.005 10.5 C 7.005 10.292 7.044 10.096 7.122 9.914 C 7.2 9.732 7.307 9.573 7.442 9.438 C 7.578 9.302 7.737 9.195 7.919 9.117 C 8.101 9.039 8.297 9 8.505 9 L 9.005 9 L 9.005 8.5 C 9.005 8.292 9.044 8.096 9.122 7.914 C 9.2 7.732 9.307 7.573 9.442 7.438 C 9.578 7.302 9.737 7.195 9.919 7.117 C 10.101 7.039 10.297 7 10.505 7 L 12.505 7 C 12.708 7 12.901 7.039 13.083 7.117 C 13.265 7.195 13.425 7.303 13.563 7.441 C 13.702 7.579 13.81 7.74 13.888 7.922 C 13.966 8.104 14.005 8.297 14.005 8.5 L 14.005 9 L 14.505 9 C 14.708 9 14.901 9.039 15.083 9.117 C 15.265 9.195 15.425 9.303 15.563 9.441 C 15.702 9.579 15.81 9.74 15.888 9.922 C 15.966 10.104 16.005 10.297 16.005 10.5 Z M 13.005 9 L 13.005 8.5 C 13.005 8.365 12.955 8.247 12.856 8.148 C 12.757 8.049 12.64 8 12.505 8 L 10.505 8 C 10.369 8 10.252 8.049 10.153 8.148 C 10.054 8.247 10.005 8.365 10.005 8.5 L 10.005 9 Z"/>
</svg>