<?xml version="1.0" encoding="utf-8"?>
<svg fill="none" viewBox="0 0 16 16" xmlns="http://www.w3.org/2000/svg">
  <path fill="#E0DFDF" d="M0 5a3 3 0 013-3h7v12H3a3 3 0 01-3-3V5zm3-2a2 2 0 00-2 2v6a2 2 0 002 2h6V3H3z"/>
  <path fill="#4CC2FF" d="M9 2.5a.5.5 0 01.5-.5H13a3 3 0 013 3v6a3 3 0 01-3 3H9.5a.5.5 0 01-.5-.5v-11zm1 .5v10h3a2 2 0 002-2V5a2 2 0 00-2-2h-3zm1 3.5a.5.5 0 01.5-.5h2a.5.5 0 010 1h-2a.5.5 0 01-.5-.5zm0 2a.5.5 0 01.5-.5h2a.5.5 0 010 1h-2a.5.5 0 01-.5-.5zm0 2a.5.5 0 01.5-.5h2a.5.5 0 010 1h-2a.5.5 0 01-.5-.5z"/>
  <path fill="#4CC2FF" d="M7 2.5a.5.5 0 00-.5-.5H3a3 3 0 00-3 3v6a3 3 0 003 3h3.5a.5.5 0 00.5-.5v-11zM6 3v10H3a2 2 0 01-2-2V5a2 2 0 012-2h3z"/>
</svg>